<svg xmlns="http://www.w3.org/2000/svg" enable-background="new 0 0 3000 3000" viewBox="0 0 3000 3000"><path fill="#eeefff" fill-rule="evenodd" d="M41620.5,54943.3c0-44-35.8-79.6-80-79.6c-298,0-1340.4,0-1638.3,0c-44.2,0-80.1,35.6-80.1,79.6
						c0,223.3,0,853.8,0,1077.1c0,43.9,35.9,79.6,80.1,79.6c298,0,1340.4,0,1638.3,0c44.2,0,80-35.7,80-79.6
						C41620.5,55797.1,41620.5,55166.6,41620.5,54943.3z" clip-rule="evenodd" transform="matrix(.97869 0 0 .98472 -38248.9 -53603.6)"/><path fill="#c5d0ff" fill-rule="evenodd" d="M40220.8,53957.7c0-21.3-10-38.6-22.4-38.6h-185.5c-12.4,0-22.4,17.3-22.4,38.6v727.1
						c0,21.3,10,38.6,22.4,38.6c44.1,0,141.4,0,185.5,0c12.4,0,22.4-17.3,22.4-38.6C40220.8,54549,40220.8,54093.5,40220.8,53957.7z
						" clip-rule="evenodd" transform="matrix(.8473 0 0 .49334 -32949.5 -25436.2)"/><path fill="#c5d0ff" fill-rule="evenodd" d="M40255.5,53945.8c0-15.5-10-28.1-22.4-28.1c-44.1,0-141.4,0-185.5,0c-12.4,0-22.4,12.6-22.4,28.1
						c0,124.1,0,623.8,0,748c0,15.5,10,28.1,22.4,28.1c44.1,0,141.4,0,185.5,0c12.4,0,22.4-12.6,22.4-28.1V53945.8z" clip-rule="evenodd" transform="matrix(.8473 0 0 .67744 -32692.6 -35509.5)"/><path fill="#c5d0ff" fill-rule="evenodd" d="M40290.1,53950.4c0-17.7-10-32.1-22.4-32.1c-44.1,0-141.4,0-185.5,0c-12.4,0-22.4,14.4-22.4,32.1
						c0,129.1,0,610.7,0,740c0,17.7,10,32.1,22.4,32.1c44.1,0,141.4,0,185.5,0c12.4,0,22.4-14.4,22.4-32.1
						C40290.1,54561.1,40290.1,54079.5,40290.1,53950.4z" clip-rule="evenodd" transform="matrix(.8473 0 0 .59245 -32435.6 -30859.4)"/><path fill="#c5d0ff" fill-rule="evenodd" d="M40324.8,53941.4c0-13.4-10-24.2-22.4-24.2c-44.1,0-141.4,0-185.5,0c-12.4,0-22.4,10.8-22.4,24.2
						c0,118.7,0,637.1,0,755.7c0,13.4,10,24.3,22.4,24.3h185.5c12.4,0,22.4-10.9,22.4-24.3
						C40324.8,54578.5,40324.8,54060,40324.8,53941.4z" clip-rule="evenodd" transform="matrix(.8473 0 0 .78418 -32178.6 -41350)"/><path fill="#c5d0ff" fill-rule="evenodd" d="M40359.5,53935.9c0-10.7-10-19.4-22.4-19.4c-44.1,0-141.4,0-185.5,0c-12.4,0-22.4,8.7-22.4,19.4v765.4
						c0,10.7,10,19.4,22.4,19.4c44.1,0,141.4,0,185.5,0c12.4,0,22.4-8.7,22.4-19.4C40359.5,54591.3,40359.5,54045.9,40359.5,53935.9
						z" clip-rule="evenodd" transform="matrix(.8473 0 0 .98222 -31921.7 -52186.4)"/><path fill="#ffd8c7" fill-rule="evenodd" d="M41121.6,53776.3l-26.3-41.1l104.2,7.8l-36.7,97.8l-26.3-41.1l-485.6,310.9c-4.1,2.6-9.2,2.9-13.7,0.7
						c0,0-218.1-109-259.5-129.8l-358.7,212.5c-6.6,3.9-15.1,1.7-19.1-4.9c-4-6.6-1.8-15.2,4.8-19.1l365.3-216.3
						c4-2.4,9-2.7,13.3-0.6l259.3,129.7L41121.6,53776.3z" clip-rule="evenodd" transform="translate(-39037.9 -53159.4)"/><path fill="#ffaa72" fill-rule="evenodd" d="M39669.2,53997l-29,81.1l126.1,33.8l20.1-78.4L39669.2,53997z" clip-rule="evenodd" transform="translate(-39044.1 -53153.8)"/><path fill="#000045" fill-rule="evenodd" d="M39752.2,51697l3.5-12.1l10.6-12.6l-26.5,2.7l-3.9,6.7C39740.7,51687.8,39746.2,51692.9,39752.2,51697z" clip-rule="evenodd" transform="rotate(3.755 921412.988 -660938.927) scale(1.15549)"/><path fill="#ffaa72" fill-rule="evenodd" d="M40352.5,9289c0,0-47.7,14.4-37.7,62c12.5,58.9,80.8,50.3,80.8,50.3L40352.5,9289z" clip-rule="evenodd" transform="matrix(-.422 .10933 .10933 .422 16807.3 -7556.11)"/><path fill="#ffc8a3" fill-rule="evenodd" d="M40374,9301.6c0,0,26.3,96.8,37.6,127.2c11.1,30.4,67.7,105.8,183,108.2
						c115.2,2.4,184.7-112.2,188.5-165.7c0,0,80.3,14.5,100.1-60.7c12.9-48.9-49.8-111.1-112.9-65.2l-100.8-135.8l-203.4-49.4
						l-126.5,117.9L40374,9301.6z" clip-rule="evenodd" transform="matrix(-.43112 .06453 .06453 .43112 17601.6 -5829.64)"/><path fill="#000045" d="M40281.9,886.5c-1.8-0.3-3.4-1.4-4.4-3.1c-17.5-28.9-38.6-44.1-38.8-44.3c-3-2.1-3.7-6.2-1.6-9.2
						c2.1-3,6.2-3.7,9.2-1.6c1,0.7,23.6,16.9,42.5,48.2c1.9,3.1,0.9,7.2-2.2,9.1C40285.1,886.5,40283.4,886.8,40281.9,886.5z" transform="matrix(.51832 -.09898 .09898 .51832 -20348.2 4351.96)"/><path fill="#000045" d="M40241.5,876.9c-2.1-0.4-3.9-1.8-4.8-3.8c-1.5-3.3,0-7.2,3.3-8.7c0.7-0.3,16.7-7.4,28.7-9.5
						c3.6-0.6,7,1.8,7.6,5.3c0.6,3.6-1.8,7-5.3,7.6c-10.4,1.9-25.5,8.5-25.7,8.6C40244.2,877,40242.8,877.1,40241.5,876.9z" transform="matrix(.51832 -.09898 .09898 .51832 -20348.2 4351.96)"/><path fill="#000045" d="M40446.1,829.9c-1.5-0.8-2.7-2.1-3.3-3.8c-1.2-3.5,0.7-7.2,4.1-8.4c16.6-5.6,53.2-6.7,73.2,29.2
						c1.8,3.2,0.6,7.2-2.5,9c-3.2,1.8-7.2,0.6-9-2.5c-19.7-35.4-55.9-23.7-57.4-23.2C40449.4,830.8,40447.6,830.6,40446.1,829.9z" transform="matrix(.47295 -.23404 .23404 .47295 -18658.1 9853.67)"/><path fill="#000045" d="M40459.1,835c-1.5-0.8-2.8-2.1-3.3-3.8c-1.2-3.4,0.7-7.2,4.1-8.3c0.6-0.2,14.5-4.8,31.1-1.8
						c3.6,0.6,6,4,5.3,7.6c-0.6,3.6-4.1,6-7.6,5.3c-13.2-2.3-24.5,1.3-24.6,1.4C40462.4,835.9,40460.6,835.7,40459.1,835z" transform="matrix(.47295 -.23404 .23404 .47295 -18593.9 9848.29)"/><path fill="#fff" fill-rule="evenodd" d="M40559.6,972.9c-21.5,0-39,17.5-39,39c0,21.6,17.5,39,39,39V972.9z" clip-rule="evenodd" transform="matrix(.19744 -.48936 .48936 .19744 -7787.41 20495.5)"/><path fill="#000045" fill-rule="evenodd" d="M40434.2,878.9c7.4,0,13.5,6,13.5,13.5s-6,13.5-13.5,13.5c-7.4,0-13.5-6-13.5-13.5
						C40420.7,884.9,40426.7,878.9,40434.2,878.9z" clip-rule="evenodd" transform="matrix(.51832 -.09898 .09898 .51832 -20354.6 4338.61)"/><path fill="#000045" fill-rule="evenodd" d="M40449.4,881.8c7.4,0,13.5,6,13.5,13.5c0,7.4-6,13.5-13.5,13.5c-7.4,0-13.5-6-13.5-13.5
						C40435.9,887.8,40441.9,881.8,40449.4,881.8z" clip-rule="evenodd" transform="matrix(.51832 -.09898 .09898 .51832 -20283.1 4338.64)"/><path fill="#000045" fill-rule="evenodd" d="M39750.9,51650.8c0,0,6.7,13.6,9.2,16.2c2.7,2.4,7.9-22.6,9.1-38.2c0,0,5-14.1,7.6-26
						c2.7-11.7,10.7-14.9,18.8-9.4c0,0,14-18.7,26.6-13.4c12.7,5.5,24.1,64.6,87.1,51.4c0,0,16.6-110.2-74.2-124.1
						c-70.9-11-94.7,31.9-94.7,31.9s-34.9,13.7-39.3,44.4c-4.5,30.5,16.4,75.3,16.4,75.3S39727.7,51642.4,39750.9,51650.8z" clip-rule="evenodd" transform="rotate(3.755 921693.472 -660954.229) scale(1.15549)"/><path fill="#000045" d="M39854.9,51683.8c-1.2,0.1-2.4-0.6-2.9-1.8l-7.2-15.9c-0.7-1.5,0-3.3,1.5-4c1.5-0.7,3.3,0,4,1.5l7.2,15.9
						c0.7,1.5,0,3.3-1.5,4C39855.6,51683.7,39855.2,51683.8,39854.9,51683.8z" transform="rotate(3.755 921693.472 -660954.229) scale(1.15549)"/><g><path fill="#c5d0ff" fill-rule="evenodd" d="M41584.6,56538.1h-48.5c0,0,0,331.3,0,412.4c0,4.7,2.6,9.2,7,12.6c4.6,3.3,10.8,5.2,17.2,5.2l0,0
						c6.5,0,12.6-1.9,17.2-5.2c4.6-3.3,7.1-7.9,7.1-12.6V56538.1z" clip-rule="evenodd" transform="matrix(.87452 -.23433 .31952 1.19248 -51903.1 -55636.8)"/><path fill="#c5d0ff" fill-rule="evenodd" d="M41605.4,56534.6h-48.5c0,0,0,327.9,0,411.2c0,10.5,10.8,19.1,24.2,19.1l0,0c6.5,0,12.6-2,17.2-5.6
						c4.6-3.6,7.1-8.5,7.1-13.5C41605.4,56862.5,41605.4,56534.6,41605.4,56534.6z" clip-rule="evenodd" transform="matrix(.78142 -.10152 .12926 .99493 -37400.2 -49989.9)"/><path fill="#3d61ff" fill-rule="evenodd" d="M41678.7,56421.8c0-9.2-2.9-18.2-8.1-24.7c-5.2-6.6-12.3-10.3-19.6-10.3c-64.5,0-224.3,0-288.8,0
						c-7.4,0-14.4,3.7-19.6,10.3c-5.2,6.6-8.1,15.5-8.1,24.7c0,19.8,0,44.7,0,64.5c0,9.2,2.9,18.2,8.1,24.7
						c5.2,6.6,12.3,10.3,19.6,10.3c64.5,0,224.3,0,288.8,0c7.4,0,14.4-3.7,19.6-10.3c5.2-6.6,8.1-15.5,8.1-24.7
						C41678.7,56466.5,41678.7,56441.6,41678.7,56421.8z" clip-rule="evenodd" transform="matrix(1.07135 0 0 .8498 -42079.3 -45952.3)"/></g><g><path fill="#ffc8a3" fill-rule="evenodd" d="M40012.3,48898.1l63.4,103.3l65,9.4l24.1-53.8l-53.9-120.6l-98.5,41V48898.1z" clip-rule="evenodd" transform="rotate(45.327 79711.366 -20932.744) scale(1.03745)"/><path fill="#ffc8a3" fill-rule="evenodd" d="M41332.1,56720.8l39.2,94.7l60.2,41.7l40.8-66.3l-52.7-113.8L41332.1,56720.8z" clip-rule="evenodd" transform="translate(-42079.3 -58459.8) scale(1.07135)"/><path fill="#ffd8c7" fill-rule="evenodd" d="M41225.9,56278.8c0,0-68.8-1.7-96.5,68.8c-27.8,70.3-115,387.5-115,387.5l136.7,43.7l97.4-271.2
						l86.6-262.9L41225.9,56278.8z" clip-rule="evenodd" transform="translate(-42079.3 -58459.8) scale(1.07135)"/><path fill="#ffd8c7" fill-rule="evenodd" d="M41697.7,56295.7c0,0,10.4,96.7-59.4,118.6c-69.6,21.9-279.4,41.6-279.4,41.6l103.6,243
						c0,0-83,41.1-150.8,46.8c0,0-112.1-219.8-135.2-289.2c-23.1-69.3-29.4-151.4,60.1-174.1l323.7-71.2L41697.7,56295.7z" clip-rule="evenodd" transform="translate(-42079.3 -58459.8) scale(1.07135)"/><path fill="#000045" d="M41211.2,56542.2c-1.2,0-2.4-0.7-3-1.9c-17.7-38.8-29.1-65.9-34.7-82.8c-22.2-66.7-19.6-116.2,7.7-147.2
						c1.2-1.4,3.2-1.5,4.6-0.3s1.5,3.2,0.3,4.6c-25.6,29.1-27.8,76.6-6.4,140.9c5.5,16.7,16.8,43.6,34.4,82.1c0.8,1.6,0,3.6-1.6,4.3
						C41212.2,56542.1,41211.7,56542.2,41211.2,56542.2z" transform="translate(-42079.3 -58459.8) scale(1.07135)"/><path fill="#ff7a3d" fill-rule="evenodd" d="M40077.2,49005.2c0,0,49,11,76.4-37.7c0,0,14.6-15,27.2-0.9c9.8,11,59.8,80,80.7,109
						c5.3,7.4,4.5,17.4-2.2,23.6c-34.3,31.8-127,115.9-218.5,186.6c-5.8,4.6-13.8,5-20.2,1.1c-10.2-6.4-26.1-17.7-38.6-33.5
						c-13.5-17.3-13.4-41.7,0.6-58.7c26.1-32.3,70.5-93.5,65.4-131c-3.3-25.3-3.5-32.5,4.1-49.1
						C40059.9,48997.8,40077.2,49005.2,40077.2,49005.2z" clip-rule="evenodd" transform="rotate(41.188 88837.724 -27108.842) scale(1.0687)"/><path fill="#fff" d="M36111.3,24838.5c-1.9-0.5-3.1-2-2.7-3.6c7.4-25.5,0.7-45.4,0.6-45.6c-0.6-1.6,0.7-3.3,2.8-3.7
						c2.1-0.4,4.3,0.5,4.8,2.1c0.3,0.9,7.3,21.4-0.5,48.5c-0.5,1.6-2.6,2.7-4.7,2.3
						C36111.6,24838.6,36111.4,24838.5,36111.3,24838.5z" transform="matrix(.84317 -.26495 .34155 1.08696 -37135.7 -14921.1)"/><path fill="#fff" d="M36107.7,24838.6c-1.9-0.5-3.1-2-2.7-3.6c6.1-21,2.6-38.2,1.3-43c-0.4-1.7,1-3.3,3.1-3.6
						c2.1-0.3,4.2,0.7,4.6,2.4c1.7,6.5,4.9,23.9-1.4,45.5c-0.5,1.6-2.6,2.7-4.7,2.3
						C36107.9,24838.6,36107.8,24838.6,36107.7,24838.6z" transform="matrix(.84317 -.26495 .34155 1.08696 -37162.6 -14911.9)"/><path fill="#fff" d="M36103.9,24838.4c-1.9-0.5-3.1-2-2.7-3.6c5.3-18.5,3.4-33.6,1.7-41c-0.4-1.7,1.1-3.2,3.2-3.5
						c2.1-0.3,4.2,0.8,4.5,2.5c1.7,7.8,3.8,23.9-1.8,43.4c-0.5,1.6-2.6,2.7-4.7,2.3C36104.2,24838.4,36104,24838.4,36103.9,24838.4z
						" transform="matrix(.84317 -.26495 .34155 1.08696 -37190.7 -14905.2)"/><path fill="#000045" d="M41352,56452.6c-0.8,0-1.7-0.3-2.3-1c-10.9-11.3-33.5-31.8-61.8-43c-1.7-0.7-2.5-2.5-1.8-4.2
						c0.7-1.7,2.6-2.5,4.2-1.8c29.5,11.7,52.8,32.9,64.1,44.5c1.2,1.3,1.2,3.3-0.1,4.6
						C41353.6,56452.3,41352.8,56452.6,41352,56452.6z" transform="translate(-42079.3 -58459.8) scale(1.07135)"/><path fill="#ff7a3d" fill-rule="evenodd" d="M41369.5,56807.8c0,0,57.6,31.6,96.8-22.6c8.7-11.8,26.2-6.6,33.3,21.8c5.5,21.9,17.4,105.4,22.4,141.7
						c1.3,9.4-5.1,18.2-14.6,19.6c-49.5,7.4-195.9,28.9-279.7,35.2c-7.6,0.6-14.5-3.9-17.3-10.9c-7.7-19.8-19.8-59.1-2.1-73.5
						c17.6-14.5,117.7-59.5,129.5-79c4.8-7.8-1.3-21.4,9.7-33.1C41358.5,56795.4,41369.5,56807.8,41369.5,56807.8z" clip-rule="evenodd" transform="translate(-42079.3 -58459.8) scale(1.07135)"/><path fill="#fff" d="M36122.8,24860.7c-1.5-0.6-2.3-2-1.9-3.3c4.7-16.1,3.8-30.1,2.2-39c-0.3-1.7,1.2-3.2,3.4-3.4
						c2.2-0.2,4.1,0.9,4.4,2.6c1.7,9.4,2.6,24.2-2.3,41.2c-0.5,1.6-2.6,2.7-4.7,2.3C36123.5,24861,36123.1,24860.9,36122.8,24860.7z
						" transform="matrix(.76835 -.43676 .56305 .9905 -39553.7 -6347.21)"/><path fill="#fff" d="M36119.1,24860.8c-1.5-0.6-2.3-2-1.9-3.3c5.1-17.7,3.5-32.5,2.1-39.7c-0.3-1.7,1.1-3.2,3.3-3.5
						c2.1-0.2,4.2,0.9,4.5,2.6c1.5,7.6,3.2,23.2-2.2,41.9c-0.5,1.6-2.6,2.7-4.7,2.3
						C36119.8,24861.1,36119.4,24860.9,36119.1,24860.8z" transform="matrix(.76835 -.43676 .56305 .9905 -39578.1 -6332.61)"/><path fill="#fff" d="M36115.4,24860.6c-1.5-0.6-2.3-2-1.9-3.3c4.9-17,3.5-31.4,2.3-38.5c-0.3-1.7,1.2-3.2,3.4-3.4
						c2.2-0.2,4.1,0.9,4.4,2.6c1.3,7.5,2.8,22.7-2.4,40.6c-0.5,1.6-2.6,2.7-4.7,2.3
						C36116.1,24860.9,36115.7,24860.7,36115.4,24860.6z" transform="matrix(.76835 -.43676 .56305 .9905 -39604.1 -6320.12)"/></g><g><path fill="#ffd83d" fill-rule="evenodd" d="M41452.9,55783c0,0,36.9-11.6,42.5-13.7c0,0-3.2-23.5,5.7-28c9-4.6,101.1-6.9,119.2-5.4
						c5.8,0.6,8.5,13.4,7.7,25c0,0,36,7.1,60.9,18.1l-68.6,480l-153.8-26.2L41452.9,55783z" clip-rule="evenodd" transform="translate(-42079.3 -58459.8) scale(1.07135)"/><path fill="#fff" d="M41559.1,55775.8c-23.9,0-45.1-0.9-45.5-1c-1.8-0.1-3.2-1.6-3.1-3.4c0.1-1.8,1.7-3.3,3.4-3.1
						c0.5,0,49.6,2.2,82.3-0.1c1.8-0.1,3.3,1.2,3.5,3c0.1,1.8-1.2,3.3-3,3.5C41585.2,55775.6,41571.8,55775.8,41559.1,55775.8z" transform="translate(-42079.3 -58459.8) scale(1.07135)"/><path fill="#ff7a3d" fill-rule="evenodd" d="M41391.6 55812.3h.1c46.5-28.3 85.7-37.2 85.7-37.2 16.2 181.7 17.6 343.6 11 494.7h-82.1c-7.7-183.6-29.2-330.8-31.2-416.1C41374.8 55838.5 41380.9 55827.9 41391.6 55812.3zM41632.2 55753.8c0 0-27.3 81-29.3 181.5-2 100.4-17.3 338.4-17.3 338.4s67.8 46.6 141 39.4c8.5-.8 14.7-8 14.3-16.5-4.5-78.4-27.1-454.2-52.8-514.9L41632.2 55753.8z" clip-rule="evenodd" transform="translate(-42079.3 -58459.8) scale(1.07135)"/></g><g><path fill="#ffc8a3" fill-rule="evenodd" d="M39963.3,48947.1l63.4,103.3l65,9.4l24.1-53.8l-53.9-120.6l-98.5,41V48947.1z" clip-rule="evenodd" transform="matrix(-.7294 .73776 .73776 .7294 -6009.93 -62903.1)"/><path fill="#ffc8a3" fill-rule="evenodd" d="M39963.5,48973.6l63.4,103.3l65,9.4l24.1-53.8l-53.9-120.6l-98.5,41V48973.6z" clip-rule="evenodd" transform="matrix(-1.03606 .05372 .05372 1.03606 39266.2 -50613.1)"/><path fill="#c5d0ff" fill-rule="evenodd" d="M39930.9,55966.1l88.4,358.3l86.1,334.2l-131.8,66l-141.4-384.5l-42.5-372.5L39930.9,55966.1z" clip-rule="evenodd" transform="translate(-41997.1 -58416) scale(1.07135)"/><path fill="#c5d0ff" fill-rule="evenodd" d="M39625,56004.5c0,0,23.4,191.5,47.5,300.7l-154.7,338.4l140.5,70.2c0,0,170.3-242.1,202.5-379.2
						c29.1-123.2,0-346.2,0-346.2L39625,56004.5z" clip-rule="evenodd" transform="translate(-41997.1 -58416) scale(1.07135)"/><path fill="#000045" d="M39860.8,56337.9c-0.2,0-0.5,0-0.7-0.1c-1.7-0.4-2.8-2.2-2.4-3.9c19.7-83.3,12.4-213.6,6.4-283.9
						c-0.2-1.8,1.2-3.4,3-3.5c1.8-0.2,3.4,1.2,3.5,3c6.1,70.7,13.3,201.8-6.5,285.9
						C39863.6,56336.9,39862.3,56337.9,39860.8,56337.9z" transform="translate(-41997.1 -58416) scale(1.07135)"/><path fill="#3d61ff" fill-rule="evenodd" d="M40026.4,49049.2c0,0,49,11,76.4-37.7c0,0,14.6-15,27.2-0.9c9.8,11,59.8,80,80.7,109
						c5.3,7.4,4.5,17.4-2.2,23.6c-34.3,31.8-127,115.9-218.5,186.6c-5.8,4.6-13.8,5-20.2,1.1c-10.2-6.4-26.1-17.7-38.6-33.5
						c-13.5-17.3-13.4-41.7,0.6-58.7c26.1-32.3,70.5-93.5,65.4-131c-3.3-25.3-3.5-32.5,4.1-49.1
						C40009,49041.9,40026.4,49049.2,40026.4,49049.2z" clip-rule="evenodd" transform="matrix(-.80425 .70377 .70377 .80425 -1357.19 -65213.3)"/><path fill="#3d61ff" fill-rule="evenodd" d="M40039.6,49059.9c0,0,49,11,76.4-37.7c0,0,14.6-15,27.2-0.9c9.8,11,59.9,80.2,80.8,109.2
						c5.3,7.2,4.3,17.3-2.1,23.4c-29.5,28-102.1,94.9-191.7,153.8c-10.6,6.9-50.3,11.5-73.1,16.9c-8.6,2-17.4-2.6-20.7-10.7
						c-2.7-7-6-16.4-9.4-28.5c-4.7-16.4-0.1-34.1,12-46.1c7.9-7.9,17.5-17.9,27-29.2c24.2-28.5,48.1-64.5,44.4-91.7
						c-3.3-25.3-3.5-32.5,4.1-49.1C40022.2,49052.6,40039.6,49059.9,40039.6,49059.9z" clip-rule="evenodd" transform="matrix(-1.0515 .19095 .19095 1.0515 33158.1 -56869)"/><path fill="#fff" d="M36033.9,24819.3c0.1,0,0.2,0,0.3,0.1c2.1,0.4,4.2-0.7,4.7-2.3c7.8-27.1,0.8-47.6,0.5-48.5
						c-0.6-1.6-2.7-2.6-4.8-2.1c-2.1,0.4-3.3,2.1-2.8,3.7c0.1,0.2,6.8,20.1-0.6,45.6
						C36030.7,24817.3,36031.9,24818.9,36033.9,24819.3z" transform="matrix(-.84317 -.26495 -.34155 1.08696 39909.2 -14923.9)"/><path fill="#fff" d="M36029.3,24834.2c0.5,0.5,1.2,0.8,2.1,0.9c2.1,0.4,4.2-0.7,4.7-2.3c7.8-27.1,0.8-47.6,0.5-48.5
						c-0.6-1.6-2.7-2.6-4.8-2.2c-2.1,0.4-3.3,2.1-2.8,3.7c0.1,0.2,6.8,20.1-0.6,45.6
						C36028.1,24832.5,36028.5,24833.5,36029.3,24834.2z" transform="matrix(-.58749 -.6603 -.8512 .75735 42746.8 7473.72)"/><path fill="#fff" d="M36030.2,24819.4c0.1,0,0.2,0,0.3,0.1c2.1,0.4,4.2-0.7,4.7-2.3c6.2-21.3,3.1-38.6,1.5-45
						c-0.4-1.7-2.5-2.7-4.6-2.4c-2.1,0.3-3.5,1.9-3.1,3.6c1.5,6.1,4.4,22.4-1.4,42.5
						C36027.1,24817.4,36028.3,24818.9,36030.2,24819.4z" transform="matrix(-.84317 -.26495 -.34155 1.08696 39936.1 -14914.8)"/><path fill="#fff" d="M36025.7,24834.3c0.5,0.5,1.2,0.8,2.1,1c2.1,0.4,4.2-0.7,4.7-2.3c7.8-27.1,0.8-47.6,0.5-48.5
						c-0.6-1.6-2.7-2.6-4.8-2.1c-2.1,0.4-3.3,2.1-2.8,3.7c0.1,0.2,6.8,20.1-0.6,45.6
						C36024.5,24832.6,36024.8,24833.6,36025.7,24834.3z" transform="matrix(-.58749 -.6603 -.8512 .75735 42765.2 7495.37)"/><path fill="#fff" d="M36026.5,24819.2c0.1,0,0.2,0,0.3,0.1c2.1,0.4,4.2-0.7,4.7-2.3c5.7-19.6,3.5-35.8,1.7-43.8
						c-0.4-1.7-2.4-2.8-4.6-2.5c-2.1,0.3-3.6,1.9-3.2,3.5c1.7,7.5,3.7,22.8-1.6,41.4
						C36023.4,24817.2,36024.5,24818.7,36026.5,24819.2z" transform="matrix(-.84317 -.26495 -.34155 1.08696 39964.2 -14908.1)"/><path fill="#fff" d="M36021.9,24834.1c0.5,0.5,1.2,0.8,2.1,0.9c2.1,0.4,4.2-0.7,4.7-2.3c7.8-27.1,0.8-47.6,0.5-48.5
						c-0.6-1.6-2.7-2.6-4.8-2.2c-2.1,0.4-3.3,2.1-2.8,3.7c0.1,0.2,6.8,20.1-0.6,45.6
						C36020.7,24832.4,36021.1,24833.4,36021.9,24834.1z" transform="matrix(-.58749 -.6603 -.8512 .75735 42785.9 7515.57)"/></g><g><path fill="#c5d0ff" fill-rule="evenodd" d="M39478.4,55279.5c0-4.6-1.8-8.9-5-12.1c-3.2-3.2-7.6-5-12.1-5h-148.2c-4.6,0-9,1.8-12.3,5
						c-3.2,3.2-5,7.6-5,12.1c0,45,0,165.8,0,210.8c0,4.6,1.8,8.9,5,12.1c3.2,3.2,7.7,5,12.3,5c34.8,0,113.3,0,148.2,0
						c4.6,0,8.9-1.8,12.1-5c3.2-3.2,5-7.6,5-12.1C39478.4,55445.3,39478.4,55324.5,39478.4,55279.5z" clip-rule="evenodd" transform="rotate(-38.591 -61902.173 89890.24) scale(1.07135)"/><path fill="#3d61ff" fill-rule="evenodd" d="M39654,55430.4c0,0-68.2,82.3-118.3,159.1c-50.2,76.8-64.4,105.3-53.5,148.1
						c10.9,42.7,24.4,47.6,38.8,52.5c14.4,4.8,66,2,79.7-11.7L39654,55430.4z" clip-rule="evenodd" transform="translate(-41997.1 -58416) scale(1.07135)"/><path fill="#3d61ff" fill-rule="evenodd" d="M39396.6,55220.4h-88.8c0,0,0,5,0,9.9c0,5.5,4.1,9.9,9.1,9.9c17,0,53.5,0,70.5,0c5,0,9.1-4.5,9.1-9.9
						C39396.6,55225.4,39396.6,55220.4,39396.6,55220.4z" clip-rule="evenodd" transform="matrix(.76589 -.61121 .5704 .71475 -61313.2 -14442.7)"/><path fill="#000045" fill-rule="evenodd" d="M39282.4,55271.6c2.9,0,5.3,2.4,5.3,5.3c0,2.9-2.4,5.3-5.3,5.3c-2.9,0-5.3-2.4-5.3-5.3
						C39277.1,55274,39279.4,55271.6,39282.4,55271.6z" clip-rule="evenodd" transform="rotate(-38.591 -75261.12 108688.81) scale(1.29661)"/></g><g><path fill="#ff7a3d" d="M39581.3 55248.5c-.6 0-1.2-.2-1.7-.5l-95.2-58.2c-1.5-.9-2-2.9-1.1-4.5.9-1.5 2.9-2 4.5-1.1l95.2 58.2c1.5.9 2 2.9 1.1 4.5C39583.5 55247.9 39582.4 55248.5 39581.3 55248.5zM39521.8 56112c-8.5 0-15.3-6.9-15.3-15.3 0-8.5 6.9-15.3 15.3-15.3s15.3 6.9 15.3 15.3C39537.2 56105.1 39530.3 56112 39521.8 56112zM39521.8 56087.8c-4.9 0-8.8 4-8.8 8.9 0 4.9 4 8.8 8.8 8.8s8.8-4 8.8-8.8C39530.7 56091.8 39526.7 56087.8 39521.8 56087.8z" transform="translate(-41997.1 -58416) scale(1.07135)"/><path fill="#ab3dff" d="M41784.1,55621.4c-0.8,0-1.5-0.3-2.2-0.8c-1.3-1.2-1.4-3.3-0.2-4.6l60.2-67c1.2-1.3,3.3-1.4,4.6-0.2
						c1.3,1.2,1.4,3.3,0.2,4.6l-60.2,67C41785.9,55621.1,41785,55621.4,41784.1,55621.4z" transform="translate(-42079.3 -58459.8) scale(1.07135)"/><path fill="#3d61ff" d="M41876.2,55934.6c-7.7,0-14-6.3-14-14s6.3-14,14-14s14,6.3,14,14S41884,55934.6,41876.2,55934.6z
						 M41876.2,55913.1c-4.1,0-7.5,3.4-7.5,7.5s3.4,7.5,7.5,7.5s7.5-3.4,7.5-7.5S41880.4,55913.1,41876.2,55913.1z" transform="translate(-42079.3 -58459.8) scale(1.07135)"/><path fill="#ab3dff" d="M40197.9,53540.7h-308.3c-1.9,0-3.5-1.6-3.5-3.5c0-1.9,1.6-3.5,3.5-3.5h308.3c1.9,0,3.5,1.6,3.5,3.5
						C40201.4,53539.1,40199.8,53540.7,40197.9,53540.7z" transform="translate(-39037.9 -53159.4)"/><path fill="#3d61ff" d="M40729.3,54834.5h-357c-1.9,0-3.5-1.6-3.5-3.5c0-1.9,1.6-3.5,3.5-3.5h357c1.9,0,3.5,1.6,3.5,3.5
						C40732.8,54833,40731.2,54834.5,40729.3,54834.5z" transform="translate(-39001.7 -53139.1)"/><path fill="#ff3d3d" d="M40103.9,55031.8c-0.7,0-1.4-0.2-2-0.6c-1.6-1.1-1.9-3.3-0.8-4.9l80.5-114.2c1.1-1.6,3.3-1.9,4.9-0.8
						c1.6,1.1,1.9,3.3,0.8,4.9l-80.4,114.2C40106.1,55031.3,40105,55031.8,40103.9,55031.8z" transform="translate(-39086.4 -53171)"/></g><g><path fill="#ff7a3d" fill-rule="evenodd" d="M41303.6,54494.2c1.6,77.4,5.9,258.1,15.8,490.1h-246.4C41073.1,54984.3,41244.5,54530.2,41303.6,54494.2z
						" clip-rule="evenodd" transform="translate(-39037.9 -53159.4)"/><path fill="#fff" d="M41402.4,56166c-1.7,0-3.2-1.4-3.2-3.1l-8.7-259.4c-0.1-1.8,1.3-3.3,3.1-3.4c1.8-0.1,3.3,1.3,3.4,3.1
						l8.7,259.4c0.1,1.8-1.3,3.3-3.1,3.4C41402.5,56166,41402.5,56166,41402.4,56166z" transform="translate(-42079.3 -58459.8) scale(1.07135)"/></g><g><path fill="#ffc8a3" fill-rule="evenodd" d="M40733.3,21107.5c0,0,6.4,78.6,21.4,113.5c0,0-24.5,77.4,27.2,61.4c0,0,42,123.5,154,65.6l39,128.4
						l206.7-37.2l-60.2-190.1l-107.9-196l-183.5-53L40733.3,21107.5z" clip-rule="evenodd" transform="matrix(.48475 .10089 -.0978 .46989 -15362.6 -12960.2)"/><path fill="#000045" d="M40119.3,873.9c1.8,0.6,3.9,0.5,5.7-0.6c3.1-1.9,4.2-6,2.3-9.1c-18.9-31.3-41.6-47.5-42.5-48.2
						c-3-2.1-7.2-1.4-9.3,1.6c-2.1,3-1.4,7.1,1.6,9.3l0,0c0.2,0.1,21.5,15.5,38.8,44.2C40116.6,872.4,40117.9,873.4,40119.3,873.9z" transform="matrix(-.49328 -.17432 -.17432 .49328 22364.3 7683.88)"/><path fill="#000045" d="M40078.9,864.3c1.6,0.5,3.3,0.5,4.9-0.2c0.1-0.1,15.2-6.7,25.6-8.6c3.6-0.6,6-4.1,5.4-7.7
						c-0.6-3.6-4.1-6-7.7-5.4c-12,2.1-28.1,9.2-28.7,9.5c-3.4,1.5-4.9,5.4-3.4,8.8C40075.8,862.5,40077.3,863.7,40078.9,864.3z" transform="matrix(-.49328 -.17432 -.17432 .49328 22364.3 7683.88)"/><path fill="#000045" fill-rule="evenodd" d="M40723.1,933c7.4,0,13.5,6,13.5,13.5c0,7.4-6,13.5-13.5,13.5c-7.4,0-13.5-6-13.5-13.5
						C40709.6,939.1,40715.6,933,40723.1,933z" clip-rule="evenodd" transform="rotate(4.046 3109.638 -267344.814) scale(.52317)"/><path fill="#fff" fill-rule="evenodd" d="M40449.2,823.8c-21.5,0-39,17.5-39,39c0,21.6,17.5,39,39,39V823.8z" clip-rule="evenodd" transform="matrix(-.17271 -.49384 -.49384 .17271 9773.14 20977.8)"/><path fill="#000045" fill-rule="evenodd" d="M40977.1,24753.5c0,0,25.3,191.2,17.4,196.1c-8.4,4.9-46.8-196.6-46.8-196.6c-8.4,0.9-17.2,1.3-27,1
						l-19.4-73.1l-5,75.1c0,0-57.2,14.2-119,17.4c0,0-44.6-173.9,109.6-240c154.2-66.1,407.4,4.6,310.1,333.1l-85.5,37.4
						c0,0-53.9-14.3-87.5-65.4c0,0,14.7-2.2,28.6-14.4c10.1-8.8,17.5-27.7,9.8-50.7
						C41044.4,24718.8,40977.1,24753.5,40977.1,24753.5z" clip-rule="evenodd" transform="rotate(11.756 73858.707 -91063.167) scale(.5538)"/><path fill="#000045" d="M40870.2,24792.4c-1.8,0.4-3.7-0.1-5.1-1.6c-8.9-9.2-18.6-9.3-25.2-7.8c0,0,0,0,0,0
						c-9.2,2.1-16.7,8.5-18.6,13.4c-1.2,3.2-4.6,4.7-7.5,3.3c-2.9-1.4-4.3-5.1-3-8.2c3.7-9.5,14.7-18,26.8-20.8c0,0,0,0,0.1,0
						c13.1-3,25.6,0.9,35.4,11c2.3,2.4,2.4,6.4,0.2,8.9C40872.4,24791.5,40871.3,24792.1,40870.2,24792.4z" transform="matrix(.5944 .1237 -.11284 .54218 -19127.9 -17398)"/><path fill="#000045" d="M41021.1,24844.5c-6,1.2-12.9,2-20.8,2c-2.3,0-4.2-1.9-4.2-4.2c0-2.3,1.9-4.2,4.2-4.2
						c30.2,0.1,44.7-13.1,44.8-13.2c1.7-1.6,4.3-1.5,5.9,0.2s1.5,4.3-0.1,5.9C41050.4,24831.5,41040.8,24840.4,41021.1,24844.5z" transform="rotate(11.756 73850.715 -91054.982) scale(.5538)"/><path fill="#3d61ff" fill-rule="evenodd" d="M41049.8,25199.9c0-15.7-6.6-30.8-18.2-41.8c-11.6-11.1-27.3-17.4-43.7-17.4c-23.7,0-50.7,0-74.4,0
						c-16.4,0-32.1,6.2-43.7,17.4c-11.6,11-18.2,26.1-18.2,41.8c0,11,0,22.6,0,33.7c0,15.7,6.6,30.8,18.2,41.9
						c11.6,11.1,27.3,17.4,43.7,17.4c23.7,0,50.7,0,74.4,0c16.4,0,32.1-6.2,43.7-17.4c11.6-11.1,18.2-26.2,18.2-41.9
						C41049.8,25222.5,41049.8,25210.9,41049.8,25199.9z" clip-rule="evenodd" transform="matrix(.51408 -.0799 .08344 .53685 -20683.9 -9002.26)"/><path fill="#000045" fill-rule="evenodd" d="M41127.9,24907c0,0-58.5,104.5,10.1,249.8l155.9-63.5l-8.2-40.2l25.2,28.5l56.7-21.4
						c0,0-23.6-158.9-165.6-189.4L41127.9,24907z" clip-rule="evenodd" transform="matrix(.54534 .1135 -.10276 .49377 -17389.6 -15769.8)"/><path fill="#ff7a3d" fill-rule="evenodd" d="M41219.1,25028.7c0-7.1-6.9-12.8-15.4-12.8c-19.7,0-53.6,0-73.2,0c-8.5,0-15.4,5.7-15.4,12.8l0,0
						c0,7,6.9,12.7,15.4,12.7c19.6,0,53.5,0,73.2,0C41212.2,25041.4,41219.1,25035.7,41219.1,25028.7L41219.1,25028.7z" clip-rule="evenodd" transform="matrix(.56861 -.11753 .1411 .68269 -24438.8 -11064.5)"/><path fill="#3d61ff" fill-rule="evenodd" d="M41578.3,55640.4c0-12.7-14.9-23-33.4-23c-0.6,0-1,0-1.6,0c-18.4,0-33.3,10.3-33.3,23c0,13,0,29.2,0,42.1
						c0,12.7,14.9,23.1,33.3,23.1c0.6,0,1,0,1.6,0c18.5,0,33.4-10.4,33.4-23.1C41578.3,55669.6,41578.3,55653.4,41578.3,55640.4z" clip-rule="evenodd" transform="matrix(.63992 .06589 -.09538 .92632 -18893.9 -53033.9)"/></g><g><path fill="#ffc8a3" fill-rule="evenodd" d="M41451.4,56201.6c0,0-45.1,9.1-59.8,21.2c-14.7,12.1-22.6,26.5-24.3,42.7c-1.6,16,102.1-11.9,102.1-11.9
						L41451.4,56201.6z" clip-rule="evenodd" transform="translate(-42079.3 -58459.8) scale(1.07135)"/><path fill="#ff7a3d" fill-rule="evenodd" d="M41697.6,55778.3c0,0-42.1-6.2-59.2,43.3c-17,49.7,14.2,194,23.5,259.3c0,0-124.5,47-149.8,60.3
						c-25.2,13.1-33.2,14.6-38.7,34l-31.3,21.8c0,0,6.1,42.2,24.4,61.5l18.4-2.2c0,0,3,8.7,32,7.8c29-0.9,167.3-39.7,207.5-55.4
						c40.2-15.8,69.4-44.8,64.3-123.3C41783.6,56006.9,41780.4,55801.6,41697.6,55778.3z" clip-rule="evenodd" transform="translate(-42079.3 -58459.8) scale(1.07135)"/><path fill="#fff" d="M41442.2,56200.3c-1,0-2-0.5-2.7-1.4c-1-1.5-0.7-3.5,0.8-4.5l30.4-21.2c5.1-17.2,12.7-21,30.7-30.1
						c2.8-1.4,5.9-3,9.3-4.8c23.5-12.3,129.6-52.7,147.7-59.5c-1.9-13-4.6-28.7-7.6-46.6c-12.3-72.4-29.2-171.5-15.4-211.6
						c0.6-1.7,2.4-2.6,4.1-2c1.7,0.6,2.6,2.4,2,4.1c-13.2,38.6,3.4,136.8,15.6,208.4c3.3,19.2,6.1,35.8,8,49.3
						c0.2,1.5-0.6,3-2.1,3.5c-1.2,0.5-124.6,47.1-149.4,60.1c-3.4,1.8-6.6,3.4-9.4,4.8c-17.9,9.1-23.3,11.8-27.7,27.2
						c-0.2,0.7-0.7,1.4-1.3,1.8l-31.3,21.8C41443.5,56200.1,41442.9,56200.3,41442.2,56200.3z" transform="translate(-42079.3 -58459.8) scale(1.07135)"/><path fill="#fff" d="M41712.1 56120.7c-1 0-2-.5-2.6-1.3-20-27.4-47.1-34.9-47.4-35-1.7-.5-2.8-2.2-2.3-4 .5-1.7 2.2-2.8 4-2.3 1.2.3 29.5 8.2 50.9 37.4 1.1 1.4.7 3.5-.7 4.5C41713.4 56120.5 41712.8 56120.7 41712.1 56120.7zM41485.5 56246.2c-1.4 0-2.7-.9-3.1-2.3-6.2-19.8-8.9-51.1-9.1-52.4-.2-1.8 1.2-3.4 3-3.5 1.8-.2 3.4 1.2 3.5 3 0 .3 2.8 31.9 8.8 51 .5 1.7-.4 3.5-2.1 4.1C41486.1 56246.2 41485.8 56246.2 41485.5 56246.2z" transform="translate(-42079.3 -58459.8) scale(1.07135)"/></g><g><rect width="257.2" height="-33.9" x="40031.6" y="18462.8" fill="#c5d0ff" fill-rule="evenodd" clip-rule="evenodd" transform="matrix(-.37684 0 0 .74593 17513.5 -11919.3)"/><path fill="#c5d0ff" fill-rule="evenodd" d="M40652.3,18392.6c2.2-0.8,1.7-1.8-1.4-2.6c-3.1-0.8-8.4-1.2-14-1.2h-215.1c-6.6,0-12.6,0.6-15.3,1.6
						c-18.9,6.8-90.8,32.3-90.8,32.3h257.3C40573,18422.6,40628.9,18401.5,40652.3,18392.6z" clip-rule="evenodd" transform="matrix(-1.53566 0 0 9.42646 64254.9 -171808)"/><path fill="#fff" d="M40528.4,18472.8c0,0,159-344.4,195-422.5c3.5-7.5,11.1-12.3,19.4-12.3h496c3.1,0,5.6-2.5,5.6-5.6
						s-2.5-5.6-5.6-5.6h-496c-12.6,0-24.2,7.4-29.6,18.8c-36,78.2-195,422.6-195,422.6L40528.4,18472.8z" transform="matrix(-.61692 0 0 .61692 27307.2 -9566.49)"/></g><g><path fill="#3d61ff" fill-rule="evenodd" d="M39668.2,55417.1c0,0-29.2,14.5-40.6,92.7c-10.1,70.1-50.3,318-47.2,477.7c0.3,9.1,6.9,16.9,16.2,19.1
						c48.2,9.7,199.6,32.4,349.6-26.5c8.2-3.2,13.4-11.1,12.9-19.7c-3.5-56.9-16.2-265.8-16.2-265.8l-77.4-259.3L39668.2,55417.1z" clip-rule="evenodd" transform="matrix(1.07135 0 0 1.10658 -41997.1 -60370.3)"/><path fill="#ff7a3d" fill-rule="evenodd" d="M39689.8,51726.3c-4.6,0.2-9,2.2-12.4,5.7c-13,13.9-45.3,54.3-44.5,111.4c0.2,9.1,5.1,17.4,12.8,21.3
						c14.8,7.4,45.6,12.9,103.2-10.8c76.3-31.4,97.7-10.8,115.1-5c0,0,10.5-20.4,4.6-34.2c0,0,8.4-26-7.6-45.7
						C39845.4,51749.7,39773.3,51722.9,39689.8,51726.3z" clip-rule="evenodd" transform="matrix(1.15549 0 0 1.06111 -45309.8 -53993.3)"/><path fill="#000045" d="M39907,55450.8c-0.2,0-0.4,0-0.6-0.1c-0.2,0-17.3-3.5-26.5-2.8c-1.8,0.1-3.3-1.2-3.5-3
						c-0.1-1.8,1.2-3.3,3-3.5c10.1-0.7,27.5,2.8,28.3,3c1.8,0.4,2.9,2.1,2.5,3.8C39909.9,55449.7,39908.5,55450.8,39907,55450.8z" transform="translate(-42002.9 -58417.7) scale(1.07135)"/><path fill="#fff" d="M39593.6,55755.1c-0.1,0-0.2,0-0.3,0c-1.8-0.2-3.1-1.7-2.9-3.5c11.2-106.1,26.5-203.1,34-242.4
						c0.3-1.7,2-2.8,3.8-2.5c1.8,0.3,2.9,2,2.6,3.7c-7.5,39.2-22.8,135.9-33.9,241.9
						C39596.7,55753.9,39595.3,55755.1,39593.6,55755.1z" transform="matrix(1.07135 0 0 1.10658 -41997.1 -60370.3)"/></g><g><path fill="#ff7a3d" fill-rule="evenodd" d="M40360.4,55536c0-2.1-1.1-4.2-3-5.7c-1.9-1.6-4.5-2.4-7.1-2.4l0,0c-2.7,0-5.2,0.9-7.1,2.5
						c-1.9,1.4-3,3.6-3,5.7c0,46.2,0,273.9,0,273.9h20.3C40360.4,55809.9,40360.4,55582.2,40360.4,55536z" clip-rule="evenodd" transform="matrix(.83966 .18229 -.2273 1.04696 -19981.2 -64453)"/><path fill="#ffc8a3" fill-rule="evenodd" d="M40309.7,55728.7c0,0,29.4-17.6,41.1-21.6c11.8-3.9,54.2-20.7,57.9-17.2c3.8,3.5,10.3,13.8,9.1,23.7
						c0,0,3.5,13.1,0,24.2c0,0,3.6,14.5-2.3,23.5c0,0-0.1,14.4-11.7,21.4c-11.6,7-53.5,7.8-68.6,6.5
						C40320.1,55787.9,40309.7,55728.7,40309.7,55728.7z" clip-rule="evenodd" transform="translate(-42043.8 -58417) scale(1.07135)"/><path fill="#3d61ff" fill-rule="evenodd" d="M39896.4,55476.1c0,0-41.7-16-73.9,14.3c-32.1,30.4-20.8,117.6-5.4,164.6
						c15.5,46.9,71.5,169.8,112.3,212.8c40.7,42.9,126.7,17,126.7,17s135.2-34.8,145.1-37.9c9.8-3.1,53.3-14.7,65.4-38.3
						c0,0,12.3-6,19.7-9.8c3.6-1.8,6-5.4,6.3-9.4c0.8-13.6-0.1-45.2-22.3-69.4c-2.2-2.4-5.3-3.8-8.7-3.7c-9.1,0.2-27.9,0.8-27.9,0.8
						s-23.5-11-62.5-0.8c-38.9,10.4-156.6,24.4-156.6,24.4S39950.3,55505.7,39896.4,55476.1z" clip-rule="evenodd" transform="translate(-41997.1 -58416) scale(1.07135)"/><path fill="#fff" d="M39929.4,55871c-0.9,0-1.7-0.3-2.4-1c-42.9-45.2-98.7-170.5-113-214c-16.9-51.3-26.1-137.3,6.2-168
						c1.3-1.2,3.4-1.2,4.6,0.1c1.2,1.3,1.2,3.4-0.1,4.6c-29.9,28.4-20.4,113-4.5,161.2c16.3,49.5,72.5,170.4,111.6,211.6
						c1.2,1.3,1.2,3.4-0.1,4.6C39931.1,55870.7,39930.3,55871,39929.4,55871z" transform="translate(-41997.1 -58416) scale(1.07135)"/><path fill="#ffc8a3" fill-rule="evenodd" d="M40344.8,55708.8c0,0,12.7-15.6,18.1-19.7c5.3-4.2,27.5-24.7,30.8-30.2l-7.8,50L40344.8,55708.8z" clip-rule="evenodd" transform="translate(-42043.8 -58417) scale(1.07135)"/><path fill="#fff" d="M39997.5,55814.3c-0.2,0-0.5,0-0.7-0.1c-1.8-0.4-2.9-2.1-2.5-3.9c5.4-24.8,21.7-53.1,22.4-54.3
						c0.9-1.6,2.9-2.1,4.4-1.2c1.6,0.9,2.1,2.9,1.2,4.4c-0.2,0.3-16.5,28.6-21.7,52.4
						C40000.4,55813.2,39999,55814.3,39997.5,55814.3z" transform="translate(-42008.6 -58421.6) scale(1.07135)"/><path fill="#fff" d="M40306,55797.9c-1.5,0-2.8-1-3.2-2.5c-7.6-31.1-21.5-57-21.7-57.3c-0.8-1.6-0.3-3.5,1.3-4.4
						c1.6-0.9,3.5-0.3,4.4,1.3c0.6,1.1,14.4,26.9,22.2,58.8c0.4,1.7-0.6,3.5-2.4,3.9C40306.5,55797.9,40306.2,55797.9,40306,55797.9
						z" transform="translate(-42040.9 -58419.2) scale(1.07135)"/></g></svg>