<svg width="549" height="246" viewBox="0 0 549 246" fill="none" xmlns="http://www.w3.org/2000/svg">
<path opacity="0.1" d="M381 122L363.5 139.5L348.5 151.5L332.5 159.5L323.5 161L317 157.5L312.5 153L308 148.5L299.5 142L290.5 138.5L282 137.5L272.5 134L265.5 129L260.5 123L256 116.5L253 110.5L250 105L247 99.5L244 95L241 91.5L237 88.5L231.5 86.5L225.5 86L214 89.5L202.5 95L157 127L146 133L135 137L119.5 139L105 144L91.5 151L79 159.5L69.5 168.5L60 178L52.5 185L36 198L17.5 210.5L1.5 222H83.5H535.5L536 221.055V169L503.5 161.5L481.5 155L473 150.5L465 138.5L457.5 124L451.5 121L443.5 122.5L433.5 126L425 124L405.5 95.5L395.5 97.5L381 122Z" fill="#1EE2B5"/>
<path d="M76.8855 233.545H78.0304V240.304C78.0304 240.907 77.9196 241.42 77.698 241.841C77.4764 242.263 77.164 242.583 76.7609 242.801C76.3577 243.02 75.8822 243.129 75.3344 243.129C74.8173 243.129 74.3572 243.035 73.954 242.848C73.5509 242.657 73.2339 242.386 73.003 242.035C72.7722 241.684 72.6568 241.267 72.6568 240.784H73.7832C73.7832 241.052 73.8494 241.286 73.9817 241.486C74.1172 241.683 74.3018 241.837 74.5357 241.947C74.7696 242.058 75.0358 242.114 75.3344 242.114C75.6637 242.114 75.9437 242.044 76.1746 241.906C76.4054 241.767 76.5808 241.564 76.7008 241.297C76.8239 241.026 76.8855 240.695 76.8855 240.304V233.545ZM82.2637 243.166C81.8144 243.166 81.4066 243.082 81.0403 242.912C80.6741 242.74 80.3832 242.492 80.1678 242.169C79.9524 241.843 79.8447 241.449 79.8447 240.987C79.8447 240.581 79.9247 240.252 80.0847 239.999C80.2448 239.744 80.4587 239.544 80.7264 239.399C80.9942 239.254 81.2896 239.147 81.6128 239.076C81.939 239.002 82.2668 238.944 82.5961 238.901C83.027 238.845 83.3763 238.804 83.644 238.776C83.9149 238.745 84.1118 238.694 84.2349 238.624C84.3611 238.553 84.4242 238.43 84.4242 238.254V238.217C84.4242 237.762 84.2996 237.408 84.0503 237.156C83.8041 236.903 83.4301 236.777 82.9285 236.777C82.4083 236.777 82.0006 236.891 81.7051 237.119C81.4096 237.346 81.2019 237.589 81.0819 237.848L80.0478 237.479C80.2324 237.048 80.4787 236.712 80.7864 236.472C81.0973 236.229 81.4358 236.06 81.802 235.964C82.1714 235.866 82.5345 235.817 82.8915 235.817C83.1193 235.817 83.3809 235.844 83.6763 235.9C83.9749 235.952 84.2626 236.061 84.5396 236.228C84.8197 236.394 85.052 236.645 85.2367 236.98C85.4214 237.316 85.5137 237.765 85.5137 238.328V243H84.4242V242.04H84.3688C84.2949 242.194 84.1718 242.358 83.9995 242.534C83.8271 242.709 83.5979 242.858 83.3116 242.982C83.0254 243.105 82.6761 243.166 82.2637 243.166ZM82.4299 242.188C82.8608 242.188 83.2239 242.103 83.5194 241.934C83.8179 241.764 84.0426 241.546 84.1934 241.278C84.3473 241.01 84.4242 240.729 84.4242 240.433V239.436C84.378 239.491 84.2765 239.542 84.1195 239.588C83.9656 239.632 83.7871 239.67 83.584 239.704C83.384 239.735 83.1885 239.762 82.9977 239.787C82.81 239.808 82.6576 239.827 82.5407 239.842C82.2575 239.879 81.9929 239.939 81.7466 240.022C81.5035 240.102 81.3065 240.224 81.1557 240.387C81.008 240.547 80.9341 240.766 80.9341 241.043C80.9341 241.421 81.0742 241.707 81.3542 241.901C81.6374 242.092 81.9959 242.188 82.4299 242.188ZM88.5917 238.734V243H87.5022V235.909H88.5548V237.017H88.6471C88.8133 236.657 89.0657 236.368 89.4042 236.149C89.7428 235.928 90.1798 235.817 90.7153 235.817C91.1954 235.817 91.6155 235.915 91.9756 236.112C92.3357 236.306 92.6158 236.602 92.8158 236.999C93.0159 237.393 93.1159 237.891 93.1159 238.494V243H92.0264V238.568C92.0264 238.011 91.8817 237.577 91.5924 237.266C91.3031 236.952 90.9061 236.795 90.4014 236.795C90.0536 236.795 89.7428 236.871 89.4689 237.022C89.198 237.172 88.9841 237.393 88.8272 237.682C88.6702 237.971 88.5917 238.322 88.5917 238.734Z" fill="#727272"/>
<path d="M84.1232 1L84.1232 222" stroke="#EBEBEB" stroke-linecap="round" stroke-linejoin="round"/>
<path d="M156.685 1L156.685 222" stroke="#EBEBEB" stroke-linecap="round" stroke-linejoin="round"/>
<path d="M228.239 1L228.239 222" stroke="#EBEBEB" stroke-linecap="round" stroke-linejoin="round"/>
<path d="M380.416 1L380.416 222" stroke="#EBEBEB" stroke-linecap="round" stroke-linejoin="round"/>
<path d="M458.017 1L458.017 222" stroke="#EBEBEB" stroke-linecap="round" stroke-linejoin="round"/>
<path d="M535.618 1L535.618 222" stroke="#EBEBEB" stroke-linecap="round" stroke-linejoin="round"/>
<path d="M146.959 243V233.545H152.628V234.561H148.104V237.756H152.203V238.771H148.104V243H146.959ZM156.893 243.148C156.21 243.148 155.621 242.997 155.125 242.695C154.633 242.391 154.253 241.966 153.985 241.421C153.72 240.873 153.588 240.236 153.588 239.51C153.588 238.784 153.72 238.143 153.985 237.589C154.253 237.032 154.625 236.598 155.102 236.288C155.582 235.974 156.142 235.817 156.782 235.817C157.152 235.817 157.517 235.878 157.877 236.001C158.237 236.125 158.564 236.325 158.86 236.602C159.155 236.875 159.391 237.239 159.566 237.691C159.742 238.143 159.829 238.701 159.829 239.362V239.824H154.363V238.882H158.721C158.721 238.482 158.641 238.125 158.481 237.811C158.324 237.497 158.1 237.249 157.807 237.068C157.518 236.886 157.176 236.795 156.782 236.795C156.349 236.795 155.973 236.903 155.656 237.119C155.342 237.331 155.101 237.608 154.931 237.95C154.762 238.291 154.677 238.657 154.677 239.048V239.676C154.677 240.212 154.77 240.666 154.954 241.038C155.142 241.407 155.402 241.689 155.735 241.883C156.067 242.074 156.453 242.169 156.893 242.169C157.179 242.169 157.438 242.129 157.669 242.049C157.903 241.966 158.104 241.843 158.274 241.68C158.443 241.513 158.574 241.307 158.666 241.061L159.719 241.357C159.608 241.714 159.422 242.027 159.16 242.298C158.898 242.566 158.575 242.775 158.191 242.926C157.806 243.074 157.373 243.148 156.893 243.148ZM161.634 243V233.545H162.724V237.036H162.816C162.896 236.912 163.007 236.755 163.149 236.565C163.293 236.371 163.499 236.198 163.767 236.048C164.038 235.894 164.404 235.817 164.866 235.817C165.463 235.817 165.989 235.966 166.445 236.265C166.9 236.563 167.256 236.986 167.511 237.534C167.767 238.082 167.894 238.728 167.894 239.473C167.894 240.224 167.767 240.875 167.511 241.426C167.256 241.974 166.902 242.398 166.449 242.7C165.997 242.998 165.475 243.148 164.884 243.148C164.429 243.148 164.064 243.072 163.79 242.922C163.516 242.768 163.306 242.594 163.158 242.4C163.01 242.203 162.896 242.04 162.816 241.911H162.687V243H161.634ZM162.705 239.455C162.705 239.99 162.784 240.462 162.941 240.872C163.098 241.278 163.327 241.597 163.629 241.827C163.93 242.055 164.3 242.169 164.737 242.169C165.192 242.169 165.572 242.049 165.877 241.809C166.185 241.566 166.416 241.24 166.569 240.83C166.726 240.418 166.805 239.959 166.805 239.455C166.805 238.956 166.728 238.507 166.574 238.107C166.423 237.703 166.194 237.385 165.886 237.151C165.581 236.914 165.198 236.795 164.737 236.795C164.293 236.795 163.921 236.908 163.619 237.132C163.318 237.354 163.09 237.665 162.936 238.065C162.782 238.462 162.705 238.925 162.705 239.455Z" fill="#727272"/>
<path d="M218.528 233.545H219.894L223.107 241.393H223.218L226.431 233.545H227.797V243H226.726V235.817H226.634L223.68 243H222.645L219.691 235.817H219.599V243H218.528V233.545ZM232.032 243.166C231.583 243.166 231.175 243.082 230.809 242.912C230.442 242.74 230.151 242.492 229.936 242.169C229.721 241.843 229.613 241.449 229.613 240.987C229.613 240.581 229.693 240.252 229.853 239.999C230.013 239.744 230.227 239.544 230.495 239.399C230.762 239.254 231.058 239.147 231.381 239.076C231.707 239.002 232.035 238.944 232.364 238.901C232.795 238.845 233.144 238.804 233.412 238.776C233.683 238.745 233.88 238.694 234.003 238.624C234.129 238.553 234.192 238.43 234.192 238.254V238.217C234.192 237.762 234.068 237.408 233.818 237.156C233.572 236.903 233.198 236.777 232.697 236.777C232.177 236.777 231.769 236.891 231.473 237.119C231.178 237.346 230.97 237.589 230.85 237.848L229.816 237.479C230.001 237.048 230.247 236.712 230.555 236.472C230.865 236.229 231.204 236.06 231.57 235.964C231.94 235.866 232.303 235.817 232.66 235.817C232.887 235.817 233.149 235.844 233.445 235.9C233.743 235.952 234.031 236.061 234.308 236.228C234.588 236.394 234.82 236.645 235.005 236.98C235.19 237.316 235.282 237.765 235.282 238.328V243H234.192V242.04H234.137C234.063 242.194 233.94 242.358 233.768 242.534C233.595 242.709 233.366 242.858 233.08 242.982C232.794 243.105 232.444 243.166 232.032 243.166ZM232.198 242.188C232.629 242.188 232.992 242.103 233.288 241.934C233.586 241.764 233.811 241.546 233.962 241.278C234.115 241.01 234.192 240.729 234.192 240.433V239.436C234.146 239.491 234.045 239.542 233.888 239.588C233.734 239.632 233.555 239.67 233.352 239.704C233.152 239.735 232.957 239.762 232.766 239.787C232.578 239.808 232.426 239.827 232.309 239.842C232.026 239.879 231.761 239.939 231.515 240.022C231.272 240.102 231.075 240.224 230.924 240.387C230.776 240.547 230.702 240.766 230.702 241.043C230.702 241.421 230.842 241.707 231.122 241.901C231.406 242.092 231.764 242.188 232.198 242.188ZM237.27 243V235.909H238.323V236.98H238.397C238.526 236.629 238.76 236.345 239.099 236.126C239.437 235.908 239.819 235.798 240.243 235.798C240.323 235.798 240.424 235.8 240.544 235.803C240.664 235.806 240.754 235.811 240.816 235.817V236.925C240.779 236.915 240.694 236.902 240.562 236.883C240.433 236.862 240.296 236.851 240.151 236.851C239.806 236.851 239.499 236.923 239.228 237.068C238.96 237.209 238.748 237.406 238.591 237.659C238.437 237.908 238.36 238.193 238.36 238.513V243H237.27Z" fill="#727272"/>
<path d="M295.592 243H294.392L297.863 233.545H299.045L302.517 243H301.317L298.491 235.041H298.417L295.592 243ZM296.035 239.307H300.873V240.322H296.035V239.307ZM303.842 245.659V235.909H304.894V237.036H305.024C305.104 236.912 305.214 236.755 305.356 236.565C305.501 236.371 305.707 236.198 305.975 236.048C306.245 235.894 306.612 235.817 307.073 235.817C307.67 235.817 308.197 235.966 308.652 236.265C309.108 236.563 309.463 236.986 309.719 237.534C309.974 238.082 310.102 238.728 310.102 239.473C310.102 240.224 309.974 240.875 309.719 241.426C309.463 241.974 309.109 242.398 308.657 242.7C308.204 242.998 307.683 243.148 307.092 243.148C306.636 243.148 306.272 243.072 305.998 242.922C305.724 242.768 305.513 242.594 305.365 242.4C305.217 242.203 305.104 242.04 305.024 241.911H304.931V245.659H303.842ZM304.913 239.455C304.913 239.99 304.991 240.462 305.148 240.872C305.305 241.278 305.534 241.597 305.836 241.827C306.138 242.055 306.507 242.169 306.944 242.169C307.4 242.169 307.78 242.049 308.084 241.809C308.392 241.566 308.623 241.24 308.777 240.83C308.934 240.418 309.012 239.959 309.012 239.455C309.012 238.956 308.935 238.507 308.781 238.107C308.631 237.703 308.401 237.385 308.094 237.151C307.789 236.914 307.406 236.795 306.944 236.795C306.501 236.795 306.128 236.908 305.827 237.132C305.525 237.354 305.298 237.665 305.144 238.065C304.99 238.462 304.913 238.925 304.913 239.455ZM311.764 243V235.909H312.816V236.98H312.89C313.019 236.629 313.253 236.345 313.592 236.126C313.93 235.908 314.312 235.798 314.737 235.798C314.817 235.798 314.917 235.8 315.037 235.803C315.157 235.806 315.248 235.811 315.309 235.817V236.925C315.272 236.915 315.188 236.902 315.055 236.883C314.926 236.862 314.789 236.851 314.644 236.851C314.3 236.851 313.992 236.923 313.721 237.068C313.453 237.209 313.241 237.406 313.084 237.659C312.93 237.908 312.853 238.193 312.853 238.513V243H311.764Z" fill="#727272"/>
<path d="M368.625 233.545H369.991L373.204 241.393H373.315L376.528 233.545H377.895V243H376.824V235.817H376.731L373.777 243H372.743L369.788 235.817H369.696V243H368.625V233.545ZM382.129 243.166C381.68 243.166 381.272 243.082 380.906 242.912C380.54 242.74 380.249 242.492 380.033 242.169C379.818 241.843 379.71 241.449 379.71 240.987C379.71 240.581 379.79 240.252 379.95 239.999C380.11 239.744 380.324 239.544 380.592 239.399C380.86 239.254 381.155 239.147 381.478 239.076C381.804 239.002 382.132 238.944 382.462 238.901C382.892 238.845 383.242 238.804 383.509 238.776C383.78 238.745 383.977 238.694 384.1 238.624C384.227 238.553 384.29 238.43 384.29 238.254V238.217C384.29 237.762 384.165 237.408 383.916 237.156C383.67 236.903 383.296 236.777 382.794 236.777C382.274 236.777 381.866 236.891 381.571 237.119C381.275 237.346 381.067 237.589 380.947 237.848L379.913 237.479C380.098 237.048 380.344 236.712 380.652 236.472C380.963 236.229 381.301 236.06 381.668 235.964C382.037 235.866 382.4 235.817 382.757 235.817C382.985 235.817 383.246 235.844 383.542 235.9C383.84 235.952 384.128 236.061 384.405 236.228C384.685 236.394 384.918 236.645 385.102 236.98C385.287 237.316 385.379 237.765 385.379 238.328V243H384.29V242.04H384.234C384.16 242.194 384.037 242.358 383.865 242.534C383.693 242.709 383.463 242.858 383.177 242.982C382.891 243.105 382.542 243.166 382.129 243.166ZM382.295 242.188C382.726 242.188 383.089 242.103 383.385 241.934C383.683 241.764 383.908 241.546 384.059 241.278C384.213 241.01 384.29 240.729 384.29 240.433V239.436C384.244 239.491 384.142 239.542 383.985 239.588C383.831 239.632 383.653 239.67 383.449 239.704C383.249 239.735 383.054 239.762 382.863 239.787C382.675 239.808 382.523 239.827 382.406 239.842C382.123 239.879 381.858 239.939 381.612 240.022C381.369 240.102 381.172 240.224 381.021 240.387C380.873 240.547 380.8 240.766 380.8 241.043C380.8 241.421 380.94 241.707 381.22 241.901C381.503 242.092 381.861 242.188 382.295 242.188ZM387.816 245.659C387.631 245.659 387.466 245.644 387.322 245.613C387.177 245.585 387.077 245.558 387.021 245.53L387.298 244.57C387.563 244.637 387.797 244.662 388 244.643C388.203 244.625 388.383 244.534 388.54 244.371C388.7 244.211 388.847 243.951 388.979 243.591L389.182 243.037L386.56 235.909H387.742L389.699 241.56H389.773L391.73 235.909H392.912L389.902 244.034C389.767 244.4 389.599 244.703 389.399 244.944C389.199 245.187 388.967 245.367 388.702 245.484C388.44 245.601 388.145 245.659 387.816 245.659Z" fill="#727272"/>
<path d="M450.665 233.545H451.81V240.304C451.81 240.907 451.699 241.42 451.478 241.841C451.256 242.263 450.944 242.583 450.54 242.801C450.137 243.02 449.662 243.129 449.114 243.129C448.597 243.129 448.137 243.035 447.734 242.848C447.33 242.657 447.013 242.386 446.783 242.035C446.552 241.684 446.436 241.267 446.436 240.784H447.563C447.563 241.052 447.629 241.286 447.761 241.486C447.897 241.683 448.081 241.837 448.315 241.947C448.549 242.058 448.815 242.114 449.114 242.114C449.443 242.114 449.723 242.044 449.954 241.906C450.185 241.767 450.36 241.564 450.48 241.297C450.604 241.026 450.665 240.695 450.665 240.304V233.545ZM458.425 240.101V235.909H459.515V243H458.425V241.8H458.352C458.185 242.16 457.927 242.466 457.576 242.718C457.225 242.968 456.782 243.092 456.246 243.092C455.803 243.092 455.409 242.995 455.065 242.801C454.72 242.605 454.449 242.309 454.252 241.915C454.055 241.518 453.957 241.018 453.957 240.415V235.909H455.046V240.341C455.046 240.858 455.191 241.27 455.48 241.578C455.772 241.886 456.145 242.04 456.597 242.04C456.868 242.04 457.144 241.971 457.424 241.832C457.707 241.694 457.944 241.481 458.135 241.195C458.328 240.909 458.425 240.544 458.425 240.101ZM462.6 238.734V243H461.51V235.909H462.563V237.017H462.655C462.821 236.657 463.074 236.368 463.412 236.149C463.751 235.928 464.188 235.817 464.723 235.817C465.204 235.817 465.624 235.915 465.984 236.112C466.344 236.306 466.624 236.602 466.824 236.999C467.024 237.393 467.124 237.891 467.124 238.494V243H466.034V238.568C466.034 238.011 465.89 237.577 465.601 237.266C465.311 236.952 464.914 236.795 464.409 236.795C464.062 236.795 463.751 236.871 463.477 237.022C463.206 237.172 462.992 237.393 462.835 237.682C462.678 237.971 462.6 238.322 462.6 238.734Z" fill="#727272"/>
<path d="M531.533 233.545H532.678V240.304C532.678 240.907 532.567 241.42 532.346 241.841C532.124 242.263 531.812 242.583 531.409 242.801C531.005 243.02 530.53 243.129 529.982 243.129C529.465 243.129 529.005 243.035 528.602 242.848C528.199 242.657 527.882 242.386 527.651 242.035C527.42 241.684 527.305 241.267 527.305 240.784H528.431C528.431 241.052 528.497 241.286 528.629 241.486C528.765 241.683 528.95 241.837 529.183 241.947C529.417 242.058 529.684 242.114 529.982 242.114C530.311 242.114 530.591 242.044 530.822 241.906C531.053 241.767 531.229 241.564 531.349 241.297C531.472 241.026 531.533 240.695 531.533 240.304V233.545ZM539.294 240.101V235.909H540.383V243H539.294V241.8H539.22C539.053 242.16 538.795 242.466 538.444 242.718C538.093 242.968 537.65 243.092 537.115 243.092C536.671 243.092 536.277 242.995 535.933 242.801C535.588 242.605 535.317 242.309 535.12 241.915C534.923 241.518 534.825 241.018 534.825 240.415V235.909H535.914V240.341C535.914 240.858 536.059 241.27 536.348 241.578C536.641 241.886 537.013 242.04 537.465 242.04C537.736 242.04 538.012 241.971 538.292 241.832C538.575 241.694 538.812 241.481 539.003 241.195C539.197 240.909 539.294 240.544 539.294 240.101ZM543.468 233.545V243H542.378V233.545H543.468Z" fill="#727272"/>
<line x1="302.5" y1="72" x2="302.5" y2="222" stroke="black"/>
<rect width="1" height="13" transform="translate(302 140)" fill="white"/>
<path d="M1 222C1 222 46.7348 192.875 64.6174 172.937C82.5 153 110.312 138.182 132.656 137.341C155 136.5 200.096 86.5 226.798 86C253.5 85.5 249.566 132.682 283.283 137.341C317 142 311.342 167.493 332.921 159.246C354.5 151 362.703 139.675 378.708 123.65C389.113 113.232 391 94.8991 403.099 94.8991C415.199 94.8991 418.156 136.8 440.328 123.65C462.5 110.5 462.5 145.5 476.5 153C490.5 160.5 536 168.083 536 168.083" stroke="#1EE2B5" stroke-width="3"/>
<line x1="1.13922" y1="1" x2="1.13923" y2="221.931" stroke="#EBEBEB"/>
<line x1="536" y1="222.5" x2="0.63876" y2="222.431" stroke="#EBEBEB"/>
<circle r="6.5" transform="matrix(1 0 0 -1 302.5 146.5)" fill="black" fill-opacity="0.4"/>
<circle r="3.5" transform="matrix(1 0 0 -1 302.5 146.5)" fill="black"/>
<g filter="url(#filter0_d_104_15)">
<rect x="257" y="21" width="90" height="70" rx="10" fill="white"/>
</g>
<path d="M274.342 71.0994C273.925 71.0994 273.55 71.0166 273.216 70.8509C272.882 70.6851 272.615 70.4579 272.414 70.169C272.212 69.8802 272.102 69.5511 272.083 69.1818H272.936C272.969 69.5109 273.118 69.7831 273.383 69.9986C273.651 70.2116 273.97 70.3182 274.342 70.3182C274.64 70.3182 274.905 70.2483 275.137 70.1087C275.372 69.969 275.555 69.7772 275.688 69.5334C275.823 69.2872 275.89 69.009 275.89 68.6989C275.89 68.3816 275.82 68.0987 275.681 67.8501C275.543 67.5992 275.354 67.4015 275.113 67.2571C274.871 67.1127 274.595 67.0393 274.285 67.0369C274.063 67.0346 273.834 67.0689 273.6 67.1399C273.365 67.2086 273.172 67.2973 273.021 67.4062L272.197 67.3068L272.637 63.7273H276.416V64.5085H273.376L273.12 66.6534H273.163C273.312 66.535 273.499 66.4368 273.724 66.3587C273.949 66.2805 274.183 66.2415 274.427 66.2415C274.872 66.2415 275.269 66.348 275.617 66.5611C275.967 66.7718 276.242 67.0606 276.441 67.4276C276.642 67.7945 276.743 68.2135 276.743 68.6847C276.743 69.1487 276.638 69.563 276.43 69.9276C276.224 70.2898 275.94 70.5762 275.578 70.7869C275.216 70.9953 274.804 71.0994 274.342 71.0994ZM280.525 71.0994C279.99 71.0994 279.535 70.9538 279.158 70.6626C278.782 70.3691 278.494 69.9441 278.295 69.3878C278.096 68.8291 277.997 68.1544 277.997 67.3636C277.997 66.5777 278.096 65.9065 278.295 65.3501C278.497 64.7914 278.785 64.3653 279.162 64.0717C279.541 63.7758 279.995 63.6278 280.525 63.6278C281.056 63.6278 281.509 63.7758 281.885 64.0717C282.264 64.3653 282.553 64.7914 282.752 65.3501C282.953 65.9065 283.054 66.5777 283.054 67.3636C283.054 68.1544 282.954 68.8291 282.756 69.3878C282.557 69.9441 282.269 70.3691 281.893 70.6626C281.516 70.9538 281.06 71.0994 280.525 71.0994ZM280.525 70.3182C281.056 70.3182 281.468 70.0625 281.761 69.5511C282.055 69.0398 282.202 68.3106 282.202 67.3636C282.202 66.7339 282.134 66.1977 281.999 65.755C281.867 65.3123 281.675 64.9749 281.424 64.7429C281.175 64.5109 280.876 64.3949 280.525 64.3949C280 64.3949 279.589 64.6541 279.293 65.1726C278.997 65.6887 278.849 66.419 278.849 67.3636C278.849 67.9934 278.916 68.5284 279.048 68.9688C279.181 69.4091 279.371 69.7441 279.62 69.9737C279.871 70.2034 280.173 70.3182 280.525 70.3182ZM287.23 73.0455V65.5455H288.04V66.4119H288.139C288.201 66.3172 288.286 66.1965 288.395 66.0497C288.506 65.9006 288.665 65.768 288.871 65.652C289.079 65.5336 289.361 65.4744 289.716 65.4744C290.175 65.4744 290.58 65.5893 290.93 65.8189C291.281 66.0485 291.554 66.3741 291.751 66.7955C291.947 67.2169 292.045 67.714 292.045 68.2869C292.045 68.8646 291.947 69.3653 291.751 69.7891C291.554 70.2105 291.282 70.5372 290.934 70.7692C290.586 70.9988 290.184 71.1136 289.73 71.1136C289.38 71.1136 289.099 71.0556 288.888 70.9396C288.678 70.8213 288.515 70.6875 288.402 70.5384C288.288 70.3868 288.201 70.2614 288.139 70.1619H288.068V73.0455H287.23ZM288.054 68.2727C288.054 68.6847 288.114 69.0481 288.235 69.3629C288.356 69.6754 288.532 69.9205 288.764 70.098C288.996 70.2732 289.28 70.3608 289.616 70.3608C289.967 70.3608 290.259 70.2685 290.493 70.0838C290.73 69.8968 290.908 69.6458 291.026 69.331C291.147 69.0137 291.207 68.661 291.207 68.2727C291.207 67.8892 291.148 67.5436 291.03 67.2358C290.914 66.9257 290.737 66.6806 290.501 66.5007C290.266 66.3184 289.971 66.2273 289.616 66.2273C289.275 66.2273 288.989 66.3137 288.757 66.4865C288.525 66.657 288.35 66.8961 288.231 67.2038C288.113 67.5092 288.054 67.8655 288.054 68.2727ZM294.929 71.1278C294.583 71.1278 294.269 71.0627 293.988 70.9325C293.706 70.8 293.482 70.6094 293.317 70.3608C293.151 70.1098 293.068 69.8068 293.068 69.4517C293.068 69.1392 293.13 68.8859 293.253 68.6918C293.376 68.4953 293.54 68.3414 293.746 68.2301C293.952 68.1188 294.18 68.036 294.428 67.9815C294.679 67.9247 294.931 67.8797 295.184 67.8466C295.516 67.804 295.785 67.772 295.991 67.7507C296.199 67.727 296.35 67.688 296.445 67.6335C296.542 67.5791 296.591 67.4844 296.591 67.3494V67.321C296.591 66.9706 296.495 66.6984 296.303 66.5043C296.114 66.3101 295.826 66.2131 295.44 66.2131C295.04 66.2131 294.726 66.3007 294.499 66.4759C294.272 66.651 294.112 66.8381 294.02 67.0369L293.224 66.7528C293.366 66.4214 293.556 66.1634 293.792 65.9787C294.032 65.7917 294.292 65.6615 294.574 65.5881C294.858 65.5123 295.137 65.4744 295.412 65.4744C295.587 65.4744 295.788 65.4957 296.015 65.5384C296.245 65.5786 296.466 65.6626 296.68 65.7905C296.895 65.9183 297.074 66.1113 297.216 66.3693C297.358 66.6274 297.429 66.973 297.429 67.4062V71H296.591V70.2614H296.548C296.491 70.3797 296.397 70.5064 296.264 70.6413C296.131 70.7763 295.955 70.8911 295.735 70.9858C295.515 71.0805 295.246 71.1278 294.929 71.1278ZM295.057 70.375C295.388 70.375 295.667 70.3099 295.895 70.1797C296.124 70.0495 296.297 69.8814 296.413 69.6754C296.532 69.4695 296.591 69.2528 296.591 69.0256V68.2585C296.555 68.3011 296.477 68.3402 296.356 68.3757C296.238 68.4089 296.101 68.4384 295.944 68.4645C295.791 68.4882 295.64 68.5095 295.493 68.5284C295.349 68.545 295.232 68.5592 295.142 68.571C294.924 68.5994 294.72 68.6456 294.531 68.7095C294.344 68.7711 294.193 68.8646 294.077 68.9901C293.963 69.1132 293.906 69.2812 293.906 69.4943C293.906 69.7855 294.014 70.0057 294.229 70.1548C294.447 70.3016 294.723 70.375 295.057 70.375ZM299.303 73.0455C299.161 73.0455 299.034 73.0336 298.923 73.0099C298.812 72.9886 298.735 72.9673 298.692 72.946L298.905 72.2074C299.109 72.2595 299.289 72.2784 299.445 72.2642C299.601 72.25 299.74 72.1802 299.86 72.0547C299.984 71.9316 300.096 71.7315 300.198 71.4545L300.354 71.0284L298.337 65.5455H299.246L300.752 69.892H300.809L302.314 65.5455H303.223L300.908 71.7955C300.804 72.0772 300.675 72.3104 300.521 72.495C300.367 72.6821 300.188 72.8205 299.985 72.9105C299.783 73.0005 299.556 73.0455 299.303 73.0455ZM304.33 71V65.5455H305.139V66.3977H305.21C305.324 66.1065 305.507 65.8804 305.761 65.7195C306.014 65.5561 306.318 65.4744 306.673 65.4744C307.033 65.4744 307.333 65.5561 307.572 65.7195C307.813 65.8804 308.001 66.1065 308.136 66.3977H308.193C308.333 66.116 308.542 65.8923 308.822 65.7266C309.101 65.5585 309.436 65.4744 309.827 65.4744C310.314 65.4744 310.713 65.6271 311.023 65.9325C311.334 66.2356 311.489 66.7079 311.489 67.3494V71H310.651V67.3494C310.651 66.947 310.54 66.6593 310.32 66.4865C310.1 66.3137 309.841 66.2273 309.543 66.2273C309.159 66.2273 308.862 66.3433 308.651 66.5753C308.441 66.8049 308.335 67.0961 308.335 67.4489V71H307.483V67.2642C307.483 66.9541 307.382 66.7043 307.181 66.5149C306.98 66.3232 306.721 66.2273 306.403 66.2273C306.186 66.2273 305.982 66.2853 305.793 66.4013C305.606 66.5173 305.454 66.6783 305.338 66.8842C305.224 67.0878 305.168 67.3234 305.168 67.5909V71H304.33ZM315.308 71.1136C314.782 71.1136 314.329 70.9976 313.948 70.7656C313.569 70.5312 313.277 70.2045 313.071 69.7855C312.867 69.3641 312.765 68.8741 312.765 68.3153C312.765 67.7566 312.867 67.2642 313.071 66.8381C313.277 66.4096 313.563 66.0758 313.93 65.8366C314.299 65.5952 314.73 65.4744 315.223 65.4744C315.507 65.4744 315.787 65.5218 316.064 65.6165C316.341 65.7112 316.593 65.8651 316.821 66.0781C317.048 66.2888 317.229 66.5682 317.364 66.9162C317.499 67.2642 317.566 67.6927 317.566 68.2017V68.5568H313.362V67.8324H316.714C316.714 67.5246 316.653 67.25 316.529 67.0085C316.409 66.767 316.236 66.5765 316.011 66.4368C315.788 66.2971 315.526 66.2273 315.223 66.2273C314.889 66.2273 314.6 66.3101 314.356 66.4759C314.115 66.6392 313.929 66.8523 313.799 67.1151C313.668 67.3778 313.603 67.6596 313.603 67.9602V68.4432C313.603 68.8551 313.674 69.2043 313.816 69.4908C313.961 69.7749 314.161 69.9915 314.417 70.1406C314.672 70.2874 314.969 70.3608 315.308 70.3608C315.528 70.3608 315.727 70.33 315.904 70.2685C316.084 70.2045 316.239 70.1098 316.37 69.9844C316.5 69.8565 316.6 69.6979 316.672 69.5085L317.481 69.7358C317.396 70.0104 317.253 70.2519 317.051 70.4602C316.85 70.6662 316.602 70.8272 316.306 70.9432C316.01 71.0568 315.677 71.1136 315.308 71.1136ZM319.679 67.7188V71H318.841V65.5455H319.651V66.3977H319.722C319.85 66.1207 320.044 65.8982 320.304 65.7301C320.565 65.5597 320.901 65.4744 321.313 65.4744C321.682 65.4744 322.005 65.5502 322.282 65.7017C322.559 65.8509 322.775 66.0781 322.929 66.3835C323.083 66.6866 323.159 67.0701 323.159 67.5341V71H322.321V67.5909C322.321 67.1624 322.21 66.8286 321.988 66.5895C321.765 66.348 321.46 66.2273 321.071 66.2273C320.804 66.2273 320.565 66.2853 320.354 66.4013C320.146 66.5173 319.981 66.6866 319.86 66.9091C319.74 67.1316 319.679 67.4015 319.679 67.7188ZM327.063 65.5455V66.2557H324.236V65.5455H327.063ZM325.06 64.2386H325.898V69.4375C325.898 69.6742 325.933 69.8518 326.001 69.9702C326.072 70.0862 326.162 70.1643 326.271 70.2045C326.382 70.2424 326.5 70.2614 326.623 70.2614C326.715 70.2614 326.791 70.2566 326.85 70.2472C326.909 70.2353 326.956 70.2259 326.992 70.2188L327.162 70.9716C327.106 70.9929 327.026 71.0142 326.925 71.0355C326.823 71.0592 326.694 71.071 326.537 71.071C326.301 71.071 326.069 71.0201 325.841 70.9183C325.617 70.8165 325.43 70.6615 325.28 70.4531C325.134 70.2448 325.06 69.982 325.06 69.6648V64.2386ZM332.09 66.767L331.337 66.9801C331.289 66.8546 331.22 66.7327 331.127 66.6143C331.037 66.4936 330.914 66.3942 330.758 66.3161C330.602 66.2379 330.402 66.1989 330.158 66.1989C329.824 66.1989 329.546 66.2758 329.323 66.4297C329.103 66.5812 328.993 66.7741 328.993 67.0085C328.993 67.2169 329.069 67.3814 329.22 67.5021C329.372 67.6229 329.609 67.7235 329.931 67.804L330.74 68.0028C331.228 68.1212 331.591 68.3023 331.83 68.5462C332.07 68.7876 332.189 69.099 332.189 69.4801C332.189 69.7926 332.099 70.072 331.919 70.3182C331.742 70.5644 331.493 70.7585 331.173 70.9006C330.854 71.0426 330.482 71.1136 330.058 71.1136C329.502 71.1136 329.042 70.9929 328.677 70.7514C328.312 70.5099 328.082 70.1572 327.985 69.6932L328.78 69.4943C328.856 69.7879 328.999 70.008 329.21 70.1548C329.423 70.3016 329.701 70.375 330.044 70.375C330.435 70.375 330.745 70.2921 330.975 70.1264C331.207 69.9583 331.323 69.7571 331.323 69.5227C331.323 69.3333 331.256 69.1747 331.124 69.0469C330.991 68.9167 330.788 68.8196 330.513 68.7557L329.604 68.5426C329.104 68.4242 328.737 68.2408 328.503 67.9922C328.271 67.7412 328.155 67.4276 328.155 67.0511C328.155 66.7434 328.241 66.4711 328.414 66.2344C328.589 65.9976 328.827 65.8118 329.128 65.6768C329.431 65.5419 329.774 65.4744 330.158 65.4744C330.698 65.4744 331.121 65.5928 331.429 65.8295C331.739 66.0663 331.959 66.3788 332.09 66.767Z" fill="black" fill-opacity="0.4"/>
<path d="M281.203 45.7649V46.7805H277.066V45.7649H281.203ZM285.89 52.1818V40.3636H286.647V52.1818H285.89ZM288.438 43.9091C288.383 43.4413 288.158 43.0781 287.764 42.8196C287.37 42.5611 286.887 42.4318 286.314 42.4318C285.896 42.4318 285.53 42.4995 285.216 42.6349C284.905 42.7704 284.662 42.9566 284.486 43.1935C284.314 43.4305 284.228 43.6998 284.228 44.0014C284.228 44.2538 284.288 44.4708 284.408 44.6523C284.531 44.8308 284.688 44.9801 284.879 45.1001C285.069 45.2171 285.269 45.314 285.479 45.391C285.688 45.4648 285.88 45.5249 286.056 45.571L287.016 45.8295C287.262 45.8942 287.536 45.9834 287.838 46.0973C288.142 46.2112 288.433 46.3666 288.71 46.5636C288.99 46.7575 289.221 47.0067 289.403 47.3114C289.584 47.6161 289.675 47.9901 289.675 48.4332C289.675 48.9441 289.541 49.4058 289.273 49.8182C289.009 50.2306 288.621 50.5584 288.11 50.8015C287.602 51.0446 286.985 51.1662 286.259 51.1662C285.582 51.1662 284.996 51.0569 284.5 50.8384C284.008 50.6199 283.62 50.3152 283.337 49.9244C283.057 49.5335 282.898 49.0795 282.861 48.5625H284.043C284.074 48.9195 284.194 49.215 284.403 49.4489C284.615 49.6797 284.883 49.852 285.206 49.9659C285.533 50.0767 285.883 50.1321 286.259 50.1321C286.696 50.1321 287.088 50.0613 287.436 49.9197C287.784 49.7751 288.059 49.575 288.262 49.3196C288.466 49.0611 288.567 48.7595 288.567 48.4148C288.567 48.1009 288.479 47.8454 288.304 47.6484C288.129 47.4515 287.898 47.2914 287.612 47.1683C287.325 47.0452 287.016 46.9375 286.684 46.8452L285.52 46.5128C284.782 46.3004 284.197 45.9973 283.766 45.6033C283.335 45.2094 283.12 44.6939 283.12 44.0568C283.12 43.5275 283.263 43.0658 283.549 42.6719C283.838 42.2749 284.226 41.9671 284.712 41.7486C285.202 41.527 285.748 41.4162 286.351 41.4162C286.961 41.4162 287.502 41.5254 287.976 41.744C288.45 41.9594 288.826 42.2549 289.103 42.6303C289.383 43.0058 289.53 43.4321 289.546 43.9091H288.438ZM294.42 51.1293C293.786 51.1293 293.226 51.0169 292.739 50.7923C292.256 50.5645 291.879 50.2521 291.608 49.8551C291.337 49.455 291.204 48.9995 291.207 48.4886C291.204 48.0885 291.282 47.7192 291.442 47.3807C291.602 47.0391 291.821 46.7544 292.098 46.5266C292.378 46.2958 292.69 46.1496 293.035 46.0881V46.0327C292.582 45.9157 292.222 45.6618 291.955 45.271C291.687 44.877 291.554 44.4292 291.557 43.9276C291.554 43.4474 291.676 43.0181 291.922 42.6396C292.168 42.261 292.507 41.9625 292.938 41.744C293.372 41.5254 293.866 41.4162 294.42 41.4162C294.968 41.4162 295.457 41.5254 295.888 41.744C296.319 41.9625 296.657 42.261 296.903 42.6396C297.153 43.0181 297.279 43.4474 297.282 43.9276C297.279 44.4292 297.142 44.877 296.871 45.271C296.603 45.6618 296.248 45.9157 295.805 46.0327V46.0881C296.146 46.1496 296.454 46.2958 296.728 46.5266C297.002 46.7544 297.22 47.0391 297.383 47.3807C297.547 47.7192 297.63 48.0885 297.633 48.4886C297.63 48.9995 297.491 49.455 297.217 49.8551C296.946 50.2521 296.569 50.5645 296.086 50.7923C295.606 51.0169 295.051 51.1293 294.42 51.1293ZM294.42 50.1136C294.847 50.1136 295.217 50.0444 295.528 49.9059C295.838 49.7674 296.079 49.572 296.248 49.3196C296.417 49.0672 296.503 48.7718 296.506 48.4332C296.503 48.0762 296.411 47.7608 296.229 47.4869C296.048 47.2129 295.8 46.9975 295.486 46.8406C295.175 46.6836 294.82 46.6051 294.42 46.6051C294.017 46.6051 293.656 46.6836 293.339 46.8406C293.026 46.9975 292.778 47.2129 292.596 47.4869C292.418 47.7608 292.33 48.0762 292.333 48.4332C292.33 48.7718 292.412 49.0672 292.578 49.3196C292.747 49.572 292.989 49.7674 293.303 49.9059C293.616 50.0444 293.989 50.1136 294.42 50.1136ZM294.42 45.6264C294.758 45.6264 295.058 45.5587 295.32 45.4233C295.585 45.2879 295.792 45.0986 295.943 44.8555C296.094 44.6123 296.171 44.3277 296.174 44.0014C296.171 43.6813 296.095 43.4028 295.948 43.1658C295.8 42.9258 295.595 42.7411 295.334 42.6119C295.072 42.4795 294.767 42.4134 294.42 42.4134C294.066 42.4134 293.756 42.4795 293.492 42.6119C293.227 42.7411 293.022 42.9258 292.878 43.1658C292.733 43.4028 292.662 43.6813 292.665 44.0014C292.662 44.3277 292.735 44.6123 292.882 44.8555C293.033 45.0986 293.241 45.2879 293.506 45.4233C293.77 45.5587 294.075 45.6264 294.42 45.6264ZM302.357 51.1293C301.815 51.1293 301.327 51.0215 300.893 50.8061C300.459 50.5907 300.111 50.2952 299.85 49.9197C299.588 49.5443 299.445 49.1165 299.42 48.6364H300.528C300.572 49.0642 300.765 49.4181 301.11 49.6982C301.458 49.9751 301.873 50.1136 302.357 50.1136C302.744 50.1136 303.089 50.0228 303.391 49.8413C303.695 49.6597 303.934 49.4104 304.106 49.0934C304.282 48.7733 304.369 48.4117 304.369 48.0085C304.369 47.5961 304.279 47.2283 304.097 46.9052C303.918 46.579 303.672 46.322 303.358 46.1342C303.044 45.9465 302.686 45.8511 302.283 45.848C301.993 45.8449 301.696 45.8896 301.392 45.9819C301.087 46.0711 300.836 46.1866 300.639 46.3281L299.568 46.1989L300.141 41.5455H305.053V42.5611H301.101L300.769 45.3494H300.824C301.018 45.1955 301.261 45.0678 301.553 44.9663C301.846 44.8647 302.15 44.8139 302.467 44.8139C303.046 44.8139 303.561 44.9524 304.014 45.2294C304.469 45.5033 304.826 45.8788 305.085 46.3558C305.347 46.8329 305.477 47.3776 305.477 47.9901C305.477 48.5933 305.342 49.1319 305.071 49.6058C304.803 50.0767 304.434 50.4491 303.963 50.723C303.492 50.9938 302.957 51.1293 302.357 51.1293ZM307.607 51L311.835 42.6349V42.5611H306.96V41.5455H313.017V42.6165L308.807 51H307.607Z" fill="black"/>
<path d="M315.137 51.0568C314.962 51.0568 314.812 50.9941 314.686 50.8686C314.561 50.7431 314.498 50.5928 314.498 50.4176C314.498 50.2424 314.561 50.0921 314.686 49.9666C314.812 49.8411 314.962 49.7784 315.137 49.7784C315.312 49.7784 315.463 49.8411 315.588 49.9666C315.714 50.0921 315.776 50.2424 315.776 50.4176C315.776 50.5336 315.747 50.6402 315.688 50.7372C315.631 50.8343 315.554 50.9124 315.457 50.9716C315.362 51.0284 315.255 51.0568 315.137 51.0568ZM319.45 51.0994C318.981 51.0994 318.563 51.0189 318.196 50.858C317.832 50.697 317.542 50.4732 317.326 50.1868C317.113 49.898 316.997 49.563 316.978 49.1818H317.873C317.892 49.4162 317.973 49.6186 318.115 49.7891C318.257 49.9571 318.443 50.0874 318.672 50.1797C318.902 50.272 319.156 50.3182 319.436 50.3182C319.748 50.3182 320.025 50.2637 320.267 50.1548C320.508 50.0459 320.698 49.8944 320.835 49.7003C320.972 49.5062 321.041 49.2812 321.041 49.0256C321.041 48.758 320.975 48.5225 320.842 48.3189C320.709 48.1129 320.515 47.9519 320.26 47.8359C320.004 47.7199 319.691 47.6619 319.322 47.6619H318.74V46.8807H319.322C319.611 46.8807 319.864 46.8286 320.082 46.7244C320.302 46.6203 320.474 46.4735 320.597 46.2841C320.722 46.0947 320.785 45.8722 320.785 45.6165C320.785 45.3703 320.731 45.156 320.622 44.9737C320.513 44.7914 320.359 44.6494 320.16 44.5476C319.964 44.4458 319.732 44.3949 319.464 44.3949C319.213 44.3949 318.976 44.4411 318.754 44.5334C318.534 44.6233 318.354 44.7547 318.214 44.9276C318.074 45.098 317.999 45.304 317.987 45.5455H317.135C317.149 45.1643 317.264 44.8305 317.479 44.544C317.695 44.2552 317.976 44.0303 318.324 43.8693C318.675 43.7083 319.059 43.6278 319.478 43.6278C319.928 43.6278 320.314 43.719 320.636 43.9013C320.958 44.0812 321.205 44.3191 321.378 44.6151C321.551 44.911 321.637 45.2306 321.637 45.5739C321.637 45.9834 321.53 46.3326 321.314 46.6214C321.101 46.9103 320.811 47.1103 320.444 47.2216V47.2784C320.904 47.3542 321.262 47.5495 321.52 47.8643C321.778 48.1768 321.907 48.5639 321.907 49.0256C321.907 49.4209 321.8 49.776 321.584 50.0909C321.371 50.4034 321.08 50.6496 320.711 50.8295C320.341 51.0095 319.921 51.0994 319.45 51.0994ZM325.732 51.0994C325.197 51.0994 324.741 50.9538 324.365 50.6626C323.988 50.3691 323.701 49.9441 323.502 49.3878C323.303 48.8291 323.204 48.1544 323.204 47.3636C323.204 46.5777 323.303 45.9065 323.502 45.3501C323.703 44.7914 323.992 44.3653 324.368 44.0717C324.747 43.7758 325.202 43.6278 325.732 43.6278C326.262 43.6278 326.716 43.7758 327.092 44.0717C327.471 44.3653 327.76 44.7914 327.958 45.3501C328.16 45.9065 328.26 46.5777 328.26 47.3636C328.26 48.1544 328.161 48.8291 327.962 49.3878C327.763 49.9441 327.476 50.3691 327.099 50.6626C326.723 50.9538 326.267 51.0994 325.732 51.0994ZM325.732 50.3182C326.262 50.3182 326.674 50.0625 326.968 49.5511C327.261 49.0398 327.408 48.3106 327.408 47.3636C327.408 46.7339 327.341 46.1977 327.206 45.755C327.073 45.3123 326.881 44.9749 326.63 44.7429C326.382 44.5109 326.082 44.3949 325.732 44.3949C325.206 44.3949 324.796 44.6541 324.5 45.1726C324.204 45.6887 324.056 46.419 324.056 47.3636C324.056 47.9934 324.122 48.5284 324.255 48.9688C324.387 49.4091 324.578 49.7441 324.826 49.9737C325.077 50.2034 325.379 50.3182 325.732 50.3182Z" fill="black" fill-opacity="0.4"/>
<defs>
<filter id="filter0_d_104_15" x="245" y="13" width="114" height="94" filterUnits="userSpaceOnUse" color-interpolation-filters="sRGB">
<feFlood flood-opacity="0" result="BackgroundImageFix"/>
<feColorMatrix in="SourceAlpha" type="matrix" values="0 0 0 0 0 0 0 0 0 0 0 0 0 0 0 0 0 0 127 0" result="hardAlpha"/>
<feOffset dy="4"/>
<feGaussianBlur stdDeviation="6"/>
<feComposite in2="hardAlpha" operator="out"/>
<feColorMatrix type="matrix" values="0 0 0 0 0.429167 0 0 0 0 0.429167 0 0 0 0 0.429167 0 0 0 0.15 0"/>
<feBlend mode="normal" in2="BackgroundImageFix" result="effect1_dropShadow_104_15"/>
<feBlend mode="normal" in="SourceGraphic" in2="effect1_dropShadow_104_15" result="shape"/>
</filter>
</defs>
</svg>
