<svg width="371" height="113" viewBox="0 0 371 113" fill="none" xmlns="http://www.w3.org/2000/svg">
<path fill-rule="evenodd" clip-rule="evenodd" d="M92.0748 2.34603C94.2886 0.132257 97.8778 0.132257 100.092 2.34603L110.781 13.035C112.995 15.2488 112.995 18.838 110.781 21.0518C108.567 23.2656 104.978 23.2656 102.764 21.0518L92.0748 10.3628C89.861 8.14902 89.861 4.55979 92.0748 2.34603ZM106.239 59.8154C106.239 89.0308 82.5556 112.715 53.3402 112.715C24.1248 112.715 0.44104 89.0308 0.44104 59.8154C0.44104 30.6001 24.1248 6.91631 53.3402 6.91631C82.5556 6.91631 106.239 30.6001 106.239 59.8154ZM93.829 56.7094C93.829 77.332 77.1111 94.05 56.4884 94.05C35.8658 94.05 19.1479 77.332 19.1479 56.7094C19.1479 36.0868 35.8658 19.3688 56.4884 19.3688C77.1111 19.3688 93.829 36.0868 93.829 56.7094Z" fill="url(#paint0_linear_1_15)"/>
<path d="M120.793 35.3636H132.17L144.187 64.6818H144.699L156.716 35.3636H168.094V79H159.145V50.598H158.783L147.49 78.7869H141.396L130.104 50.4915H129.741V79H120.793V35.3636ZM190.439 79.6392C187.073 79.6392 184.175 78.9574 181.746 77.5937C179.331 76.2159 177.471 74.2699 176.164 71.7557C174.857 69.2273 174.203 66.2372 174.203 62.7855C174.203 59.419 174.857 56.4645 176.164 53.9219C177.471 51.3793 179.31 49.3977 181.682 47.9773C184.069 46.5568 186.867 45.8466 190.077 45.8466C192.236 45.8466 194.246 46.1946 196.107 46.8906C197.982 47.5724 199.615 48.6023 201.007 49.9801C202.414 51.358 203.507 53.0909 204.289 55.179C205.07 57.2528 205.461 59.6818 205.461 62.4659V64.9588H177.826V59.3338H196.917C196.917 58.027 196.632 56.8693 196.064 55.8608C195.496 54.8523 194.708 54.0639 193.699 53.4957C192.705 52.9133 191.547 52.6222 190.226 52.6222C188.848 52.6222 187.627 52.9418 186.561 53.581C185.51 54.206 184.686 55.0511 184.09 56.1165C183.493 57.1676 183.188 58.3395 183.174 59.6321V64.9801C183.174 66.5994 183.472 67.9986 184.069 69.1776C184.679 70.3565 185.539 71.2656 186.647 71.9048C187.755 72.544 189.069 72.8636 190.588 72.8636C191.597 72.8636 192.52 72.7216 193.358 72.4375C194.196 72.1534 194.914 71.7273 195.51 71.1591C196.107 70.5909 196.561 69.8949 196.874 69.071L205.269 69.625C204.843 71.642 203.969 73.4034 202.648 74.9091C201.341 76.4006 199.651 77.5653 197.577 78.4034C195.517 79.2273 193.138 79.6392 190.439 79.6392ZM220.461 60.0795V79H211.384V46.2727H220.034V52.0469H220.418C221.142 50.1435 222.357 48.6378 224.061 47.5298C225.766 46.4077 227.833 45.8466 230.262 45.8466C232.534 45.8466 234.516 46.3437 236.206 47.3381C237.897 48.3324 239.211 49.7528 240.148 51.5994C241.086 53.4318 241.554 55.6193 241.554 58.1619V79H232.478V59.7812C232.492 57.7784 231.98 56.2159 230.944 55.0937C229.907 53.9574 228.479 53.3892 226.661 53.3892C225.439 53.3892 224.36 53.652 223.422 54.1776C222.499 54.7031 221.774 55.4702 221.249 56.4787C220.738 57.473 220.475 58.6733 220.461 60.0795ZM275.938 55.6051L267.629 56.1165C267.486 55.4062 267.181 54.767 266.712 54.1989C266.244 53.6165 265.626 53.1548 264.859 52.8139C264.106 52.4588 263.204 52.2812 262.153 52.2812C260.746 52.2812 259.56 52.5795 258.594 53.1761C257.629 53.7585 257.146 54.5398 257.146 55.5199C257.146 56.3011 257.458 56.9616 258.083 57.5014C258.708 58.0412 259.781 58.4744 261.3 58.8011L267.224 59.9943C270.406 60.6477 272.778 61.6989 274.34 63.1477C275.903 64.5966 276.684 66.5 276.684 68.858C276.684 71.0028 276.052 72.8849 274.788 74.5043C273.538 76.1236 271.819 77.3878 269.631 78.2969C267.458 79.1918 264.951 79.6392 262.11 79.6392C257.778 79.6392 254.326 78.7372 251.755 76.9332C249.198 75.1151 247.7 72.6435 247.259 69.5185L256.187 69.0497C256.457 70.3707 257.11 71.3793 258.147 72.0753C259.184 72.7571 260.512 73.098 262.131 73.098C263.722 73.098 265.001 72.7926 265.967 72.1818C266.947 71.5568 267.444 70.7543 267.458 69.7741C267.444 68.9503 267.096 68.2756 266.414 67.75C265.732 67.2102 264.681 66.7983 263.261 66.5142L257.593 65.3849C254.397 64.7457 252.018 63.6378 250.455 62.0611C248.907 60.4844 248.133 58.4744 248.133 56.0312C248.133 53.929 248.701 52.1179 249.837 50.598C250.988 49.0781 252.6 47.9062 254.674 47.0824C256.762 46.2585 259.205 45.8466 262.004 45.8466C266.137 45.8466 269.39 46.7202 271.762 48.4673C274.148 50.2145 275.54 52.5937 275.938 55.6051ZM291.732 79.6179C289.644 79.6179 287.783 79.2557 286.149 78.5312C284.516 77.7926 283.223 76.706 282.272 75.2713C281.334 73.8224 280.865 72.0185 280.865 69.8594C280.865 68.0412 281.199 66.5142 281.867 65.2784C282.534 64.0426 283.444 63.0483 284.594 62.2955C285.745 61.5426 287.051 60.9744 288.515 60.5909C289.992 60.2074 291.54 59.9375 293.159 59.7812C295.063 59.5824 296.597 59.3977 297.762 59.2273C298.926 59.0426 299.772 58.7727 300.297 58.4176C300.823 58.0625 301.086 57.5369 301.086 56.8409V56.7131C301.086 55.3636 300.659 54.3196 299.807 53.581C298.969 52.8423 297.776 52.473 296.228 52.473C294.594 52.473 293.294 52.8352 292.328 53.5597C291.363 54.2699 290.723 55.1648 290.411 56.2443L282.016 55.5625C282.442 53.5739 283.28 51.8551 284.53 50.4062C285.78 48.9432 287.392 47.821 289.367 47.0398C291.355 46.2443 293.657 45.8466 296.27 45.8466C298.088 45.8466 299.828 46.0597 301.49 46.4858C303.167 46.9119 304.651 47.5724 305.944 48.4673C307.25 49.3622 308.28 50.5128 309.033 51.919C309.786 53.3111 310.162 54.9801 310.162 56.9261V79H301.554V74.4616H301.299C300.773 75.4844 300.07 76.3864 299.189 77.1676C298.309 77.9347 297.25 78.5383 296.015 78.9787C294.779 79.4048 293.351 79.6179 291.732 79.6179ZM294.331 73.3537C295.667 73.3537 296.846 73.0909 297.868 72.5653C298.891 72.0256 299.694 71.3011 300.276 70.392C300.858 69.483 301.149 68.4531 301.149 67.3026V63.8295C300.865 64.0142 300.475 64.1847 299.978 64.3409C299.495 64.483 298.948 64.6179 298.337 64.7457C297.726 64.8594 297.115 64.9659 296.505 65.0653C295.894 65.1506 295.34 65.2287 294.843 65.2997C293.777 65.456 292.847 65.7045 292.051 66.0455C291.256 66.3864 290.638 66.848 290.198 67.4304C289.757 67.9986 289.537 68.7088 289.537 69.5611C289.537 70.7969 289.985 71.7415 290.88 72.3949C291.789 73.0341 292.939 73.3537 294.331 73.3537ZM317.204 79V46.2727H326.004V51.983H326.345C326.941 49.9517 327.943 48.4176 329.349 47.3807C330.755 46.3295 332.375 45.804 334.207 45.804C334.662 45.804 335.152 45.8324 335.677 45.8892C336.203 45.946 336.664 46.0241 337.062 46.1236V54.1776C336.636 54.0497 336.047 53.9361 335.294 53.8366C334.541 53.7372 333.852 53.6875 333.227 53.6875C331.892 53.6875 330.698 53.9787 329.647 54.5611C328.61 55.1293 327.787 55.9247 327.176 56.9474C326.579 57.9702 326.281 59.1491 326.281 60.4844V79H317.204ZM341.755 79V46.2727H350.832V79H341.755ZM346.315 42.054C344.965 42.054 343.808 41.6065 342.842 40.7116C341.89 39.8026 341.414 38.7159 341.414 37.4517C341.414 36.2017 341.89 35.1293 342.842 34.2344C343.808 33.3253 344.965 32.8707 346.315 32.8707C347.664 32.8707 348.815 33.3253 349.766 34.2344C350.732 35.1293 351.215 36.2017 351.215 37.4517C351.215 38.7159 350.732 39.8026 349.766 40.7116C348.815 41.6065 347.664 42.054 346.315 42.054ZM358.103 79V46.2727H367.179V79H358.103ZM362.662 42.054C361.313 42.054 360.155 41.6065 359.189 40.7116C358.238 39.8026 357.762 38.7159 357.762 37.4517C357.762 36.2017 358.238 35.1293 359.189 34.2344C360.155 33.3253 361.313 32.8707 362.662 32.8707C364.012 32.8707 365.162 33.3253 366.114 34.2344C367.08 35.1293 367.563 36.2017 367.563 37.4517C367.563 38.7159 367.08 39.8026 366.114 40.7116C365.162 41.6065 364.012 42.054 362.662 42.054Z" fill="white"/>
<defs>
<linearGradient id="paint0_linear_1_15" x1="105.148" y1="10.8672" x2="13.4913" y2="96.799" gradientUnits="userSpaceOnUse">
<stop offset="0.140625" stop-color="#EAEAEA"/>
<stop offset="1" stop-color="white" stop-opacity="0.9"/>
</linearGradient>
</defs>
</svg>
