<svg xmlns="http://www.w3.org/2000/svg" fill-rule="evenodd" stroke-linejoin="round" stroke-miterlimit="2" clip-rule="evenodd" viewBox="0 0 32 32"><rect width="32" height="32" fill="none"/><path d="M65,11C65,9.343 63.657,8 62,8C57.157,8 44.843,8 40,8C38.343,8 37,9.343 37,11C37,13.661 37,18.339 37,21C37,22.657 38.343,24 40,24C44.843,24 57.157,24 62,24C63.657,24 65,22.657 65,21L65,11ZM63,11C63,10.448 62.552,10 62,10C57.157,10 44.843,10 40,10C39.448,10 39,10.448 39,11C39,13.661 39,18.339 39,21C39,21.552 39.448,22 40,22C44.843,22 57.157,22 62,22C62.552,22 63,21.552 63,21L63,11ZM50,11.987C50.007,11.441 50.453,11 51,11C51.552,11 52,11.448 52,12L52,12.01C52.579,12.145 53.133,12.379 53.573,12.687C54.025,13.003 54.136,13.627 53.82,14.079C53.504,14.532 52.88,14.643 52.427,14.327C51.95,13.993 51.235,13.815 50.638,13.898C50.303,13.945 50,14.104 50,14.507C50,14.596 50.066,14.638 50.133,14.677C50.242,14.739 50.367,14.788 50.5,14.832C50.93,14.976 51.424,15.072 51.872,15.203C53.109,15.564 54,16.218 54,17.507C54,18.821 53.291,19.578 52.309,19.925C52.21,19.96 52.106,19.99 52,20.015C51.992,20.56 51.547,21 51,21C50.448,21 50,20.552 50,20L50,19.984C49.425,19.854 48.877,19.63 48.441,19.336C47.983,19.027 47.862,18.405 48.171,17.947C48.48,17.49 49.102,17.369 49.559,17.678C50.041,18.003 50.764,18.184 51.366,18.103C51.698,18.058 52,17.905 52,17.507C52,17.417 51.934,17.376 51.867,17.337C51.758,17.274 51.633,17.226 51.5,17.181C51.07,17.037 50.576,16.941 50.128,16.811C48.891,16.45 48,15.796 48,14.507C48,13.856 48.19,13.346 48.485,12.949C48.843,12.467 49.374,12.143 50,11.987ZM42,17L43,17C43.552,17 44,16.552 44,16C44,15.448 43.552,15 43,15L42,15C41.448,15 41,15.448 41,16C41,16.552 41.448,17 42,17ZM59,17L60,17C60.552,17 61,16.552 61,16C61,15.448 60.552,15 60,15L59,15C58.448,15 58,15.448 58,16C58,16.552 58.448,17 59,17Z" transform="translate(-35)"/></svg>