<svg xmlns="http://www.w3.org/2000/svg" fill-rule="evenodd" stroke-linejoin="round" stroke-miterlimit="2" clip-rule="evenodd" viewBox="0 0 134 134"><path d="M56.925 79.385c0-1.114-.902-2.016-2.015-2.016l-41.904 0c-1.113 0-2.016.902-2.016 2.016l0 41.903c0 1.113.903 2.016 2.016 2.016l41.904 0c1.113 0 2.015-.903 2.015-2.016l0-41.903zm-41.903 2.015l0 37.873 37.872 0 0-37.873-37.872 0zM126.425 37.06c.788-.787.788-2.063 0-2.851l-25.624-25.624c-.787-.787-2.064-.787-2.851 0l-25.624 25.624c-.787.788-.787 2.064 0 2.851l25.624 25.624c.787.788 2.064.788 2.851 0l25.624-25.624zm-49.823-1.425l22.774 22.774 22.773-22.774-22.773-22.774-22.774 22.774zM35.425 11.493c-.353-.647-1.032-1.049-1.769-1.049-.737 0-1.415.402-1.769 1.049l-25.323 46.35c-.341.625-.327 1.383.036 1.995.363.612 1.022.987 1.733.987l50.646 0c.712 0 1.371-.375 1.734-.987.363-.612.376-1.37.035-1.995l-25.323-46.35zm-23.693 45.301l43.849 0-21.925-40.13-21.924 40.13zM99.074 74.279c-14.09 0-25.53 11.44-25.53 25.53 0 14.09 11.44 25.53 25.53 25.53 14.09 0 25.53-11.44 25.53-25.53 0-14.09-11.44-25.53-25.53-25.53zm0 4.031c11.865 0 21.499 9.634 21.499 21.499 0 11.865-9.634 21.498-21.499 21.498-11.865 0-21.498-9.633-21.498-21.498 0-11.865 9.633-21.499 21.498-21.499z"/></svg>